{"glyphs":{"0":{"ha":803,"x_min":53,"x_max":749,"o":"m 749 418 q 726 255 749 331 q 658 117 704 179 q 534 19 613 54 q 353 -17 456 -17 q 131 60 210 -17 q 53 274 53 136 q 160 593 53 478 q 449 708 268 708 q 672 633 594 708 q 749 418 749 557 m 368 96 q 469 126 426 96 q 535 206 513 156 q 567 310 557 257 q 576 421 576 363 q 433 596 576 596 q 330 564 374 596 q 265 479 286 532 q 233 373 243 426 q 224 263 224 319 q 368 96 224 96 z "},"1":{"ha":532,"x_min":15,"x_max":474,"o":"m 456 0 l 15 0 l 33 138 l 176 138 l 226 525 l 79 485 l 63 574 l 306 692 l 408 692 l 336 138 l 474 138 l 456 0 z "},"2":{"ha":646,"x_min":18,"x_max":600,"o":"m 600 138 l 544 0 l 18 0 l 18 75 q 203 263 82 136 q 349 413 325 389 q 404 518 404 468 q 385 567 404 549 q 335 585 365 585 q 158 493 258 585 l 90 582 q 397 711 244 711 q 539 669 481 711 q 597 549 597 628 q 503 356 597 446 q 254 138 471 325 l 600 138 z "},"3":{"ha":569,"x_min":-142,"x_max":533,"o":"m 507 156 q 467 -3 507 69 q 361 -125 426 -76 q 212 -208 296 -174 q 42 -259 128 -243 q -125 -275 -43 -275 l -136 -275 l -142 -178 q -1 -161 -71 -175 q 147 -116 69 -147 q 272 -22 224 -85 q 319 125 319 40 q 238 206 319 206 q 143 186 194 206 l 108 286 q 269 398 192 324 q 346 547 346 472 q 303 594 346 594 q 164 526 240 594 l 100 604 q 222 682 147 654 q 364 710 296 710 q 484 679 435 710 q 533 585 533 649 q 456 430 533 504 q 283 310 378 356 q 325 313 311 313 q 458 273 408 313 q 507 156 507 233 z "},"4":{"ha":690,"x_min":1,"x_max":697,"o":"m 697 138 l 674 -1 l 542 -1 l 508 -256 l 343 -256 l 376 -1 l 1 -1 l 1 79 l 460 692 l 632 692 l 560 138 l 697 138 m 394 138 l 436 457 l 199 138 l 394 138 z "},"5":{"ha":517,"x_min":-24,"x_max":536,"o":"m 536 692 l 490 524 l 243 524 l 214 454 q 446 114 446 318 q 406 -46 446 28 q 300 -168 365 -119 q 160 -247 235 -217 q 6 -287 85 -276 l -24 -201 q 185 -87 100 -162 q 271 107 271 -11 q 198 265 271 190 q 36 379 125 339 l 171 692 l 536 692 z "},"6":{"ha":744,"x_min":24,"x_max":729,"o":"m 669 342 q 569 91 669 199 q 313 -17 468 -17 q 101 65 179 -17 q 24 279 24 146 q 64 490 24 389 q 175 674 104 592 q 328 819 246 756 q 508 933 411 883 q 704 1014 628 994 l 729 924 q 467 769 596 878 q 264 533 338 661 q 424 585 346 585 q 602 518 535 585 q 669 342 669 451 m 325 99 q 446 169 401 99 q 490 324 490 239 q 461 425 490 385 q 374 465 432 465 q 218 392 292 465 q 201 275 201 325 q 231 150 201 201 q 325 99 261 99 z "},"7":{"ha":590,"x_min":0,"x_max":579,"o":"m 579 603 l 203 -262 l 24 -262 l 381 536 l 0 536 l 42 690 l 579 690 l 579 603 z "},"8":{"ha":640,"x_min":15,"x_max":636,"o":"m 596 281 q 506 67 596 150 q 269 -17 415 -17 q 89 41 163 -17 q 15 203 15 99 q 20 267 15 238 q 40 323 25 296 q 65 368 56 350 q 103 412 75 386 q 141 447 131 438 q 187 485 151 457 q 231 519 222 513 l 221 529 q 165 594 183 571 q 132 656 147 617 q 117 739 117 694 q 203 940 117 864 q 406 1017 290 1017 q 570 966 504 1017 q 636 824 636 915 q 628 755 636 788 q 612 702 619 722 q 579 653 604 682 q 546 616 554 625 q 501 576 538 607 q 457 539 464 544 q 474 521 463 532 q 537 448 517 474 q 576 376 557 422 q 596 281 596 331 m 374 633 q 430 680 410 661 q 469 734 450 699 q 488 810 488 769 q 468 879 488 851 q 407 907 449 907 q 328 865 360 907 q 297 769 297 822 q 299 746 297 757 q 307 723 301 735 q 316 704 313 711 q 329 685 319 697 q 342 668 339 672 q 358 650 346 664 q 374 633 371 636 m 275 96 q 376 143 335 96 q 418 251 418 190 q 412 292 418 272 q 392 331 406 311 q 368 363 378 351 q 338 397 358 375 q 313 425 318 419 q 278 398 307 421 q 242 367 250 375 q 213 339 233 360 q 186 303 193 318 q 172 264 179 288 q 164 214 164 240 q 194 128 164 161 q 275 96 224 96 z "},"9":{"ha":744,"x_min":10,"x_max":718,"o":"m 718 413 q 658 165 718 283 q 500 -42 599 47 q 282 -195 401 -131 q 33 -297 163 -260 l 10 -207 q 276 -62 149 -160 q 478 160 403 35 q 318 108 396 108 q 140 174 207 108 q 72 350 72 240 q 181 606 72 501 q 431 710 290 710 q 641 628 564 710 q 718 413 718 546 m 525 301 q 540 418 540 368 q 510 543 540 492 q 417 594 481 594 q 297 523 340 594 q 253 369 253 451 q 282 268 253 308 q 369 228 311 228 q 525 301 449 228 z "},"\u0000":{"ha":0,"x_min":0,"x_max":0,"o":""},"\r":{"ha":325,"x_min":0,"x_max":0,"o":""}," ":{"ha":325,"x_min":0,"x_max":0,"o":""},"$":{"ha":597,"x_min":15,"x_max":561,"o":"m 518 250 q 449 65 518 140 q 257 -18 379 -10 l 222 -174 l 126 -174 l 189 -17 q 15 40 92 -7 l 88 154 q 229 99 171 99 q 308 125 275 99 q 340 200 340 151 q 315 253 340 232 q 251 290 289 275 q 176 322 214 304 q 113 374 139 339 q 88 461 88 410 q 169 638 88 572 q 356 708 250 703 l 389 867 l 483 867 l 422 706 q 561 665 510 694 l 492 549 q 367 596 438 596 q 296 575 326 596 q 265 513 265 554 q 291 463 265 483 q 354 427 317 442 q 429 394 392 413 q 492 340 467 376 q 518 250 518 304 z "},"%":{"ha":1099,"x_min":42,"x_max":1061,"o":"m 1061 340 q 990 98 1061 201 q 786 -6 918 -6 q 636 56 686 -6 q 586 218 586 117 q 658 460 586 357 q 861 563 729 563 q 1011 502 961 563 q 1061 340 1061 442 m 886 971 l 297 -17 l 204 -17 l 750 896 l 490 896 q 518 769 518 844 q 447 526 518 631 q 242 422 375 422 q 92 483 143 422 q 42 646 42 544 q 113 888 42 785 q 318 990 185 990 q 414 971 374 990 l 886 971 m 918 343 q 847 453 918 453 q 788 426 813 453 q 751 360 764 400 q 734 283 739 319 q 729 215 729 247 q 800 104 729 104 q 859 131 835 104 q 896 197 883 157 q 913 274 908 238 q 918 343 918 311 m 375 771 q 303 881 375 881 q 244 855 268 881 q 208 788 219 829 q 191 711 196 747 q 186 643 186 675 q 257 532 186 532 q 316 558 292 532 q 353 625 340 585 q 370 702 365 665 q 375 771 375 739 z "},"&":{"ha":892,"x_min":0,"x_max":901,"o":"m 901 433 q 733 281 901 281 q 565 56 672 129 q 296 -17 458 -17 q 81 52 161 -17 q 0 253 0 121 q 42 420 0 342 q 156 556 83 499 q 126 665 126 610 q 186 834 126 764 q 331 934 246 904 q 511 964 415 964 q 660 936 586 964 q 782 856 735 908 l 699 771 q 613 830 664 806 q 518 854 563 854 q 357 799 424 854 q 290 651 290 743 q 292 631 290 638 q 438 657 367 657 q 557 632 507 657 q 607 544 607 607 q 541 451 607 485 q 408 417 475 417 q 246 460 314 417 q 183 274 183 375 q 226 156 183 197 q 347 115 269 115 q 571 221 494 115 q 592 271 592 254 q 553 306 592 306 q 523 294 536 306 q 507 267 510 283 l 399 267 q 444 371 399 338 q 564 404 490 404 l 739 388 q 776 401 760 388 q 793 433 792 414 l 901 433 m 474 543 q 431 565 474 565 q 338 540 381 565 q 403 515 367 515 q 448 522 422 515 q 474 543 474 529 z "},"'":{"ha":218,"x_min":72,"x_max":236,"o":"m 236 1017 l 203 776 q 131 624 143 657 l 101 624 q 94 666 101 628 q 79 740 86 704 l 72 776 l 106 1017 l 236 1017 z "},"(":{"ha":449,"x_min":63,"x_max":526,"o":"m 526 1010 q 294 667 371 843 q 218 276 218 492 q 368 -181 218 43 l 239 -203 q 63 308 63 42 q 403 1032 63 686 l 526 1010 z "},")":{"ha":456,"x_min":-29,"x_max":435,"o":"m 435 521 q 94 -203 435 143 l -29 -181 q 202 160 125 -15 q 279 551 279 336 q 131 1010 279 782 l 258 1032 q 435 521 435 788 z "},"*":{"ha":563,"x_min":75,"x_max":633,"o":"m 633 771 l 410 733 l 547 586 l 411 490 l 339 686 l 214 494 l 107 583 l 283 738 l 75 767 l 136 915 l 317 813 l 307 1029 l 461 1029 l 396 813 l 597 921 l 633 771 z "},"+":{"ha":892,"x_min":93,"x_max":785,"o":"m 785 285 l 500 285 l 500 0 l 378 0 l 378 283 l 93 283 l 93 406 l 378 406 l 378 690 l 500 690 l 500 407 l 785 407 l 785 285 z "},",":{"ha":326,"x_min":7,"x_max":251,"o":"m 251 86 q 192 -62 251 10 q 53 -186 132 -135 l 7 -129 q 85 -22 85 -64 q 60 16 85 -14 q 35 82 35 46 q 67 161 35 129 q 144 193 100 193 q 222 162 192 193 q 251 86 251 131 z "},"-":{"ha":435,"x_min":60,"x_max":385,"o":"m 385 424 l 367 292 l 60 292 l 78 424 l 385 424 z "},".":{"ha":299,"x_min":42,"x_max":257,"o":"m 149 -17 q 74 15 106 -17 q 42 90 42 47 q 73 167 42 135 q 149 199 104 199 q 225 167 193 199 q 257 90 257 135 q 225 15 257 46 q 149 -17 193 -17 z "},"/":{"ha":407,"x_min":-25,"x_max":479,"o":"m 479 1017 l 104 0 l -25 0 l 349 1017 l 479 1017 z "},":":{"ha":343,"x_min":32,"x_max":310,"o":"m 139 -17 q 64 15 96 -17 q 32 90 32 47 q 63 167 32 135 q 139 199 94 199 q 215 167 183 199 q 247 90 247 135 q 215 15 247 46 q 139 -17 183 -17 m 201 385 q 126 417 158 385 q 94 492 94 449 q 126 568 94 536 q 201 600 157 600 q 278 568 246 600 q 310 492 310 536 q 278 416 310 447 q 201 385 246 385 z "},";":{"ha":351,"x_min":7,"x_max":310,"o":"m 201 385 q 126 417 158 385 q 94 492 94 449 q 126 568 94 536 q 201 600 157 600 q 278 568 246 600 q 310 492 310 536 q 278 416 310 447 q 201 385 246 385 m 251 86 q 192 -62 251 10 q 53 -186 132 -135 l 7 -129 q 85 -22 85 -64 q 60 16 85 -14 q 35 82 35 46 q 67 161 35 129 q 144 193 100 193 q 222 162 192 193 q 251 86 251 131 z "},"<":{"ha":875,"x_min":92,"x_max":783,"o":"m 783 -17 l 92 310 l 92 382 l 783 707 l 783 582 l 272 346 l 783 106 l 783 -17 z "},"=":{"ha":875,"x_min":94,"x_max":783,"o":"m 783 151 l 94 151 l 94 274 l 783 274 l 783 151 m 783 419 l 94 419 l 94 542 l 783 542 l 783 419 z "},">":{"ha":875,"x_min":92,"x_max":783,"o":"m 783 310 l 92 -17 l 92 106 l 603 346 l 92 582 l 92 707 l 783 382 l 783 310 z "},"?":{"ha":535,"x_min":26,"x_max":563,"o":"m 563 835 q 526 714 563 767 q 440 631 490 661 q 338 576 389 600 q 250 527 286 553 q 214 474 214 501 q 265 418 214 433 q 369 403 317 403 l 390 403 l 354 274 q 219 297 282 278 q 106 365 157 315 q 56 486 56 414 q 90 592 56 547 q 174 664 125 638 q 273 714 224 690 q 357 770 322 738 q 392 844 392 803 q 367 888 392 871 q 317 904 343 904 q 190 872 260 904 l 156 989 q 331 1017 253 1017 q 492 969 422 1017 q 563 835 563 922 m 133 -21 q 58 11 90 -21 q 26 86 26 43 q 58 163 26 131 q 133 194 89 194 q 210 163 178 194 q 242 86 242 131 q 210 10 242 42 q 133 -21 178 -21 z "},"@":{"ha":1156,"x_min":63,"x_max":1093,"o":"m 626 -96 l 647 -169 q 510 -187 583 -187 q 189 -58 315 -187 q 63 267 63 72 q 103 482 63 376 q 214 673 143 588 q 394 811 285 758 q 631 864 503 864 q 960 747 826 864 q 1093 432 1093 631 q 1017 181 1093 292 q 821 71 942 71 q 671 149 714 71 q 597 90 642 111 q 513 69 553 69 q 380 132 425 69 q 335 286 335 194 q 414 506 335 400 q 619 611 493 611 q 739 560 693 611 l 763 601 l 828 601 q 775 225 775 272 q 826 149 775 149 q 954 235 904 149 q 1004 432 1004 322 q 897 692 1004 596 q 631 789 790 789 q 376 710 489 789 q 208 514 264 632 q 151 267 151 396 q 253 -4 151 104 q 510 -112 354 -112 q 626 -96 568 -112 m 696 485 q 611 525 654 525 q 526 479 563 525 q 476 381 490 433 q 461 286 461 329 q 536 156 461 156 q 601 185 574 156 q 647 268 629 214 q 676 370 665 322 q 696 485 686 418 z "},"A":{"ha":813,"x_min":-76,"x_max":757,"o":"m 757 0 l 563 0 l 506 292 l 233 292 l 96 0 l -76 0 l 401 1017 l 551 1017 l 757 0 m 476 428 q 429 775 469 463 q 373 622 418 747 q 297 428 328 496 l 476 428 z "},"B":{"ha":786,"x_min":15,"x_max":763,"o":"m 763 818 q 697 644 763 718 q 532 554 631 569 q 682 474 624 539 q 740 318 740 410 q 626 83 740 165 q 353 0 511 0 l 15 0 l 140 932 l 132 1017 l 476 1017 q 577 1008 531 1017 q 668 979 624 1000 q 738 917 713 958 q 763 818 763 876 m 567 776 q 446 879 567 879 l 315 879 l 281 619 l 415 619 q 524 665 481 619 q 567 776 567 711 m 551 332 q 497 444 551 406 q 365 482 443 482 l 263 482 l 217 138 l 358 138 q 497 192 443 138 q 551 332 551 247 z "},"C":{"ha":815,"x_min":24,"x_max":864,"o":"m 864 938 l 751 810 q 665 877 721 853 q 553 901 608 901 q 403 858 469 901 q 299 747 338 815 q 242 600 261 678 q 222 444 222 522 q 242 294 222 365 q 315 169 261 224 q 450 114 369 114 q 689 218 572 114 l 754 86 q 422 -17 588 -17 q 126 97 229 -17 q 24 407 24 211 q 60 640 24 528 q 164 840 97 751 q 335 983 231 929 q 564 1036 439 1036 q 731 1011 644 1036 q 864 938 817 986 z "},"D":{"ha":922,"x_min":15,"x_max":899,"o":"m 899 604 q 835 307 899 443 q 647 85 772 171 q 358 0 522 0 l 15 0 l 140 932 l 131 1017 l 496 1017 q 793 906 688 1017 q 899 604 899 796 m 701 588 q 644 797 701 715 q 465 879 588 879 l 315 879 l 217 138 l 369 138 q 520 178 454 138 q 624 287 586 219 q 682 431 663 354 q 701 588 701 508 z "},"E":{"ha":704,"x_min":15,"x_max":739,"o":"m 739 1017 l 721 879 l 314 879 l 275 592 l 586 592 l 568 454 l 257 454 l 215 138 l 621 138 l 603 0 l 15 0 l 140 932 l 131 1017 l 739 1017 z "},"F":{"ha":649,"x_min":15,"x_max":697,"o":"m 697 1017 l 679 879 l 315 879 l 276 592 l 558 592 l 540 454 l 258 454 l 197 0 l 15 0 l 140 932 l 132 1017 l 697 1017 z "},"G":{"ha":928,"x_min":24,"x_max":910,"o":"m 910 924 l 799 810 q 690 883 736 864 q 568 903 644 903 q 408 859 478 903 q 299 744 339 815 q 240 593 260 674 q 219 428 219 513 q 238 284 219 350 q 307 168 256 218 q 439 118 358 118 q 598 181 533 118 q 675 333 663 244 l 686 419 l 486 419 l 501 542 l 886 542 q 818 -1 833 181 l 724 -1 l 694 104 q 551 13 621 42 q 390 -15 482 -15 q 117 97 210 -15 q 24 394 24 210 q 61 637 24 522 q 168 840 99 751 q 346 981 238 929 q 586 1033 454 1033 q 769 1006 675 1033 q 910 924 863 979 z "},"H":{"ha":936,"x_min":15,"x_max":921,"o":"m 921 1017 l 785 0 l 601 0 l 663 454 l 257 454 l 197 0 l 15 0 l 140 932 l 132 1017 l 332 1017 l 275 592 l 681 592 l 738 1017 l 921 1017 z "},"I":{"ha":347,"x_min":15,"x_max":332,"o":"m 332 1017 l 197 0 l 15 0 l 140 932 l 132 1017 l 332 1017 z "},"J":{"ha":353,"x_min":-314,"x_max":338,"o":"m 338 1017 l 218 113 q 205 19 210 51 q 188 -67 200 -14 q 161 -150 175 -121 q 122 -217 147 -179 q 65 -273 97 -254 q -12 -306 33 -292 q -117 -319 -58 -319 q -314 -258 -225 -319 l -228 -143 q -125 -193 -183 -193 q -55 -167 -85 -193 q -8 -94 -25 -142 q 15 -15 8 -47 q 29 65 22 18 l 146 932 l 138 1017 l 338 1017 z "},"K":{"ha":768,"x_min":15,"x_max":817,"o":"m 817 1017 l 458 538 l 715 0 l 501 0 l 267 524 l 197 0 l 15 0 l 140 932 l 132 1017 l 332 1017 l 267 532 l 621 1017 l 817 1017 z "},"L":{"ha":638,"x_min":15,"x_max":594,"o":"m 594 138 l 576 0 l 15 0 l 140 932 l 133 1017 l 333 1017 l 217 138 l 594 138 z "},"M":{"ha":1153,"x_min":15,"x_max":1138,"o":"m 1138 1017 l 1001 0 l 819 0 l 911 689 q 922 743 914 708 q 931 789 929 778 q 886 689 903 722 l 558 -1 l 436 -1 l 285 689 q 265 789 268 765 q 260 689 261 704 l 167 0 l 15 0 l 139 932 l 132 1017 l 399 1017 l 526 432 q 542 264 536 392 q 600 426 574 372 l 878 1017 l 1138 1017 z "},"N":{"ha":947,"x_min":15,"x_max":932,"o":"m 932 1017 l 794 -7 l 646 -7 l 306 690 q 263 783 297 707 q 262 754 263 774 q 260 719 261 735 q 258 690 260 703 l 165 0 l 15 0 l 139 932 l 132 1017 l 353 1017 l 653 407 q 663 385 657 399 q 678 350 669 371 q 693 315 686 329 q 695 366 694 329 q 699 422 696 403 l 778 1017 l 932 1017 z "},"O":{"ha":982,"x_min":24,"x_max":958,"o":"m 958 610 q 922 377 958 489 q 818 178 885 265 q 647 38 751 90 q 417 -15 542 -15 q 126 101 228 -15 q 24 410 24 218 q 84 712 24 572 q 268 942 144 851 q 557 1032 392 1032 q 854 918 750 1032 q 958 610 958 804 m 763 603 q 711 815 763 731 q 542 900 660 900 q 415 868 472 900 q 323 785 358 836 q 263 669 288 735 q 228 540 239 604 q 218 414 218 476 q 269 202 218 288 q 439 117 321 117 q 591 164 525 117 q 692 287 657 211 q 745 443 728 363 q 763 603 763 524 z "},"P":{"ha":749,"x_min":15,"x_max":751,"o":"m 751 751 q 642 497 751 585 q 358 408 532 408 l 251 408 l 197 0 l 15 0 l 140 932 l 132 1017 l 439 1017 q 663 951 575 1017 q 751 751 751 886 m 558 747 q 525 845 558 811 q 428 879 492 879 l 315 879 l 271 543 l 382 543 q 511 603 464 543 q 558 747 558 664 z "},"Q":{"ha":982,"x_min":24,"x_max":1486,"o":"m 1486 -222 q 1367 -262 1411 -249 q 1258 -288 1324 -276 q 1131 -300 1193 -300 q 965 -272 1057 -300 q 808 -214 872 -244 q 640 -131 743 -183 q 496 -58 538 -78 q 455 -42 478 -50 q 417 -31 432 -35 q 374 -20 401 -26 q 333 -11 346 -14 q 24 403 24 64 q 85 707 24 565 q 272 941 146 849 q 563 1033 397 1033 q 856 914 753 1033 q 958 601 958 794 q 878 270 958 425 q 650 38 799 115 q 828 -58 758 -22 q 1009 -131 897 -93 q 1203 -169 1121 -169 q 1453 -121 1286 -169 l 1486 -222 m 765 600 q 747 743 765 679 q 677 853 729 807 q 544 900 625 900 q 395 851 461 900 q 293 726 329 803 q 238 569 257 650 q 219 413 219 489 q 272 203 219 288 q 440 118 324 118 q 590 165 525 118 q 692 287 656 213 q 747 442 729 361 q 765 600 765 522 z "},"R":{"ha":785,"x_min":15,"x_max":754,"o":"m 754 767 q 686 585 754 663 q 513 482 618 508 l 743 0 l 538 0 l 331 453 l 258 453 l 197 0 l 15 0 l 140 932 l 132 1017 l 464 1017 q 671 953 588 1017 q 754 767 754 890 m 561 763 q 523 848 561 818 q 428 878 485 878 l 314 878 l 276 589 l 360 589 q 506 631 451 589 q 561 763 561 672 z "},"S":{"ha":688,"x_min":-50,"x_max":707,"o":"m 707 950 l 625 822 q 535 878 594 856 q 426 900 475 900 q 319 863 364 900 q 275 764 275 826 q 302 690 275 724 q 369 634 329 656 q 457 583 410 613 q 544 525 504 554 q 612 446 585 496 q 639 333 639 396 q 527 80 639 176 q 254 -17 415 -17 q -50 68 74 -17 l 38 218 q 256 117 129 117 q 385 163 331 117 q 440 283 440 210 q 403 372 440 333 q 312 440 365 411 q 204 501 258 469 q 113 588 150 533 q 75 714 75 642 q 185 953 75 874 q 463 1033 296 1033 q 594 1009 519 1033 q 707 950 668 985 z "},"T":{"ha":726,"x_min":42,"x_max":789,"o":"m 789 1017 l 769 879 l 499 879 l 381 0 l 192 0 l 308 879 l 42 879 l 60 1017 l 789 1017 z "},"U":{"ha":917,"x_min":49,"x_max":900,"o":"m 900 1017 l 815 386 q 687 88 789 192 q 381 -15 585 -15 q 135 64 222 -15 q 49 300 49 143 q 54 386 49 347 l 128 933 l 118 1017 l 325 1017 l 235 338 q 232 300 232 313 q 282 166 232 215 q 418 117 332 117 q 582 182 517 117 q 660 340 647 247 l 751 1017 l 900 1017 z "},"V":{"ha":779,"x_min":49,"x_max":856,"o":"m 856 1017 l 386 -1 l 244 -1 l 49 1017 l 242 1017 l 351 436 q 360 374 356 414 q 365 306 364 335 l 367 278 q 432 468 403 406 l 683 1017 l 856 1017 z "},"W":{"ha":1215,"x_min":49,"x_max":1292,"o":"m 1292 1017 l 897 -3 l 711 -3 l 639 575 l 633 731 q 560 501 589 576 l 361 -3 l 178 -3 l 49 1017 l 239 1017 l 313 429 l 325 253 q 389 481 358 406 l 604 1017 l 769 1017 l 844 426 l 853 253 q 925 481 896 406 l 1136 1017 l 1292 1017 z "},"X":{"ha":786,"x_min":-69,"x_max":856,"o":"m 856 1017 l 514 543 l 746 0 l 536 0 l 379 361 l 133 0 l -69 0 l 311 524 l 97 1017 l 307 1017 l 443 708 l 654 1017 l 856 1017 z "},"Y":{"ha":726,"x_min":49,"x_max":803,"o":"m 803 1017 l 438 454 l 376 0 l 196 0 l 256 458 l 49 1017 l 251 1017 l 385 656 l 622 1017 l 803 1017 z "},"Z":{"ha":758,"x_min":-24,"x_max":779,"o":"m 779 915 l 228 138 l 686 138 l 667 0 l -24 0 l -24 114 l 524 879 l 113 879 l 131 1017 l 779 1017 l 779 915 z "},"[":{"ha":438,"x_min":28,"x_max":476,"o":"m 476 1017 l 465 935 l 335 935 l 196 -101 l 326 -101 l 315 -183 l 28 -183 l 189 1017 l 476 1017 z "},"\\":{"ha":499,"x_min":-25,"x_max":479,"o":"m 479 0 l 349 0 l -25 1017 l 104 1017 l 479 0 z "},"]":{"ha":432,"x_min":-17,"x_max":431,"o":"m 431 1017 l 271 -183 l -17 -183 l -6 -101 l 125 -101 l 263 935 l 133 935 l 143 1017 l 431 1017 z "},"^":{"ha":858,"x_min":67,"x_max":792,"o":"m 792 0 l 665 0 l 429 511 l 189 0 l 67 0 l 393 692 l 465 692 l 792 0 z "},"_":{"ha":688,"x_min":-17,"x_max":707,"o":"m 707 -65 l 689 -199 l -17 -199 l 1 -65 l 707 -65 z "},"`":{"ha":344,"x_min":6,"x_max":358,"o":"m 358 819 l 215 819 l 6 1049 l 207 1049 l 358 819 z "},"a":{"ha":729,"x_min":29,"x_max":736,"o":"m 736 31 q 589 -12 671 -12 q 515 15 547 -12 q 475 82 483 42 l 469 82 q 267 -17 396 -17 q 89 67 149 -17 q 29 274 29 151 q 71 479 29 382 q 200 642 113 576 q 403 707 288 707 q 569 638 504 707 l 601 694 l 689 694 l 614 181 q 611 151 611 161 q 646 101 611 101 q 713 118 669 101 l 736 31 m 511 538 q 392 593 456 593 q 299 558 339 593 q 238 469 258 522 q 207 366 217 417 q 197 274 197 315 q 299 99 197 99 q 386 138 349 99 q 448 248 424 176 q 485 385 472 319 q 511 538 499 450 z "},"b":{"ha":719,"x_min":38,"x_max":690,"o":"m 690 418 q 639 213 690 310 q 484 50 588 115 q 249 -15 381 -15 q 38 56 114 -15 l 163 990 l 156 1067 l 332 1067 l 275 639 q 453 708 349 708 q 631 630 572 708 q 690 418 690 551 m 522 451 q 424 592 522 592 q 336 561 383 592 q 256 492 289 531 l 210 150 q 208 136 208 144 q 267 99 208 99 q 451 211 381 99 q 522 451 522 324 z "},"c":{"ha":585,"x_min":29,"x_max":613,"o":"m 613 642 l 517 532 q 392 593 458 593 q 303 561 342 593 q 245 481 265 529 q 215 383 225 432 q 204 290 204 335 q 236 158 204 211 q 339 106 268 106 q 492 168 410 106 l 543 49 q 307 -17 421 -17 q 106 66 182 -17 q 29 274 29 149 q 135 581 29 454 q 411 708 240 708 q 519 690 461 708 q 613 642 576 672 z "},"d":{"ha":735,"x_min":29,"x_max":742,"o":"m 742 1068 l 614 182 q 611 153 611 163 q 646 103 611 103 q 713 119 669 103 l 736 31 q 589 -12 671 -12 q 515 14 547 -12 q 471 82 482 40 q 267 -17 397 -17 q 89 67 149 -17 q 29 274 29 151 q 126 576 29 444 q 389 707 224 707 q 529 663 483 707 l 572 992 l 565 1068 l 742 1068 m 513 538 q 393 593 457 593 q 300 558 340 593 q 239 472 260 524 q 208 369 218 419 q 199 278 199 319 q 300 99 199 99 q 375 127 342 99 q 429 196 408 156 q 467 301 450 236 q 494 416 485 365 q 513 538 503 467 z "},"e":{"ha":642,"x_min":29,"x_max":628,"o":"m 628 547 q 608 458 628 503 q 543 370 588 414 q 411 299 499 326 q 206 269 324 271 q 251 148 211 190 q 347 106 290 106 q 547 190 436 106 l 606 75 q 593 65 601 71 q 558 43 585 58 q 501 15 531 28 q 424 -7 471 3 q 331 -17 378 -17 q 115 63 200 -17 q 29 279 29 142 q 55 426 29 351 q 128 564 81 500 q 250 668 175 628 q 415 708 325 708 q 569 667 510 708 q 628 547 628 625 m 457 544 q 403 592 457 592 q 297 540 357 592 q 215 388 238 489 q 390 435 324 390 q 457 544 457 481 z "},"f":{"ha":418,"x_min":-236,"x_max":696,"o":"m 696 1018 l 628 908 q 492 964 567 964 q 412 936 447 964 q 356 862 376 908 q 326 775 336 815 q 308 690 315 735 l 472 690 l 457 575 l 293 575 l 207 -65 q -46 -319 172 -319 q -153 -304 -97 -319 q -236 -258 -210 -289 l -169 -167 q -122 -197 -153 -183 q -68 -210 -90 -210 q 50 -49 28 -210 l 135 575 l 25 575 l 39 690 l 149 690 q 181 842 160 776 q 241 963 203 907 q 344 1048 279 1018 q 496 1078 408 1078 q 696 1018 608 1078 z "},"g":{"ha":706,"x_min":-7,"x_max":694,"o":"m 694 724 l 610 92 q 490 -207 585 -94 q 238 -319 396 -319 q -7 -242 86 -319 l 71 -129 q 132 -178 82 -147 q 229 -208 182 -208 q 322 -176 279 -208 q 390 -99 364 -144 q 430 -13 415 -53 q 449 53 444 26 l 443 53 q 268 -17 372 -17 q 90 67 150 -17 q 31 274 31 151 q 72 480 31 383 q 204 642 114 576 q 417 708 294 708 q 558 681 496 708 l 694 724 m 517 561 q 407 592 453 592 q 310 557 353 592 q 244 471 267 522 q 211 369 222 419 q 200 278 200 319 q 301 99 200 99 q 360 115 333 99 q 406 156 386 132 q 442 221 425 179 q 469 297 458 263 q 490 385 479 331 q 505 473 500 440 q 517 561 510 506 z "},"h":{"ha":682,"x_min":38,"x_max":647,"o":"m 647 538 q 643 467 647 500 l 590 75 l 594 0 l 419 0 l 481 450 q 485 500 485 475 q 415 575 485 575 q 336 550 385 575 q 263 501 288 525 l 196 0 l 38 0 l 169 993 l 164 1068 l 339 1068 l 278 625 q 479 710 388 710 q 647 538 647 710 z "},"i":{"ha":317,"x_min":38,"x_max":344,"o":"m 344 961 q 310 876 344 914 q 229 839 276 839 q 167 866 192 839 q 142 931 142 893 q 176 1015 142 978 q 258 1051 211 1051 q 320 1025 296 1051 q 344 961 344 999 m 288 690 l 206 76 l 210 0 l 38 0 l 119 615 l 115 690 l 288 690 z "},"j":{"ha":317,"x_min":-285,"x_max":344,"o":"m 344 961 q 310 876 344 914 q 229 839 275 839 q 166 866 192 839 q 140 931 140 893 q 176 1015 140 978 q 257 1051 211 1051 q 319 1025 294 1051 q 344 961 344 999 m 290 690 l 203 47 q 191 -31 196 -1 q 176 -103 186 -60 q 153 -174 165 -147 q 119 -231 140 -200 q 71 -279 97 -262 q 6 -308 44 -296 q -79 -319 -32 -319 q -285 -261 -189 -319 l -208 -150 q -156 -192 -190 -176 q -87 -208 -121 -208 q -28 -185 -53 -208 q 10 -117 -4 -161 q 29 -47 24 -74 q 40 21 35 -21 l 121 617 l 115 690 l 290 690 z "},"k":{"ha":631,"x_min":38,"x_max":658,"o":"m 658 690 l 410 371 l 596 0 l 413 0 l 246 354 l 199 0 l 38 0 l 169 993 l 163 1068 l 342 1068 l 249 374 l 481 690 l 658 690 z "},"l":{"ha":317,"x_min":38,"x_max":343,"o":"m 343 1068 l 210 75 l 214 0 l 38 0 l 169 993 l 165 1068 l 343 1068 z "},"m":{"ha":1053,"x_min":38,"x_max":1018,"o":"m 1018 540 q 1013 471 1018 515 l 960 74 l 964 0 l 792 0 l 853 461 q 856 500 856 486 q 838 557 856 539 q 782 575 821 575 q 639 503 718 575 l 572 0 l 413 0 l 475 465 q 478 499 478 488 q 407 575 478 575 q 333 553 374 575 q 264 501 293 531 l 196 0 l 38 0 l 104 494 q 108 575 108 535 q 89 685 108 654 l 257 706 q 268 617 268 667 q 482 708 379 708 q 632 607 604 708 q 860 708 740 708 q 1018 540 1018 708 z "},"n":{"ha":683,"x_min":38,"x_max":649,"o":"m 649 538 q 644 467 649 500 l 592 75 l 596 0 l 422 0 l 482 450 q 486 500 486 475 q 417 575 486 575 q 337 550 386 575 q 264 501 288 525 l 196 0 l 38 0 l 104 494 q 108 575 108 535 q 89 685 108 654 l 257 706 q 268 617 268 667 q 481 710 381 710 q 649 538 649 710 z "},"o":{"ha":706,"x_min":29,"x_max":676,"o":"m 676 410 q 632 205 676 301 q 501 46 588 108 q 304 -17 414 -17 q 102 67 175 -17 q 29 282 29 150 q 133 579 29 450 q 401 708 238 708 q 603 625 531 708 q 676 410 676 542 m 503 424 q 386 594 503 594 q 298 560 336 594 q 240 474 260 526 q 212 370 221 421 q 203 274 203 319 q 319 94 203 94 q 410 129 371 94 q 467 218 449 164 q 494 324 486 272 q 503 424 503 375 z "},"p":{"ha":731,"x_min":-3,"x_max":701,"o":"m 701 418 q 604 116 701 247 q 342 -15 507 -15 q 201 29 247 -15 l 167 -236 l 174 -312 l -3 -312 l 106 494 q 111 574 111 529 q 93 683 111 647 l 256 704 q 269 621 267 665 q 356 684 301 660 q 464 708 411 708 q 642 624 582 708 q 701 418 701 540 m 532 413 q 431 592 532 592 q 372 576 399 592 q 327 540 346 561 q 292 479 308 518 q 265 409 275 440 q 245 325 256 378 q 230 240 235 272 q 218 154 225 208 q 338 99 274 99 q 414 122 379 99 q 470 181 449 146 q 506 260 492 215 q 526 342 521 304 q 532 413 532 381 z "},"q":{"ha":710,"x_min":29,"x_max":696,"o":"m 696 746 l 567 -235 l 574 -311 l 397 -311 l 446 54 q 267 -17 374 -17 q 89 67 149 -17 q 29 274 29 151 q 71 479 29 382 q 200 642 113 576 q 403 707 288 707 q 571 639 503 707 l 631 746 l 696 746 m 511 538 q 392 593 456 593 q 299 558 339 593 q 238 469 258 522 q 207 366 217 417 q 197 274 197 315 q 299 99 197 99 q 386 138 349 99 q 448 248 424 176 q 485 385 472 319 q 511 538 499 450 z "},"r":{"ha":454,"x_min":38,"x_max":507,"o":"m 507 704 l 458 539 l 453 539 q 251 411 349 539 l 196 0 l 38 0 l 104 504 q 110 574 110 540 q 88 690 110 654 l 257 704 q 271 599 271 657 q 269 558 271 571 q 377 661 313 618 q 507 704 442 704 z "},"s":{"ha":515,"x_min":-21,"x_max":526,"o":"m 526 665 l 454 549 q 331 592 410 592 q 260 572 289 592 q 231 513 231 551 q 256 462 231 483 q 319 424 282 440 q 392 388 356 408 q 455 331 429 368 q 481 239 481 293 q 397 50 481 117 q 190 -17 313 -17 q -21 44 74 -17 l 51 158 q 193 99 142 99 q 272 128 239 99 q 304 204 304 157 q 265 269 304 242 q 178 314 225 297 q 92 372 132 331 q 53 475 53 413 q 135 649 53 590 q 338 708 218 708 q 526 665 446 708 z "},"t":{"ha":438,"x_min":35,"x_max":465,"o":"m 465 690 l 449 575 l 289 575 l 239 193 q 236 154 236 168 q 282 100 236 100 q 386 114 331 100 l 401 18 q 215 -14 303 -14 q 105 18 139 -14 q 71 114 71 50 q 75 161 71 136 l 131 575 l 35 575 l 50 690 l 146 690 l 172 879 l 349 879 l 306 690 l 465 690 z "},"u":{"ha":693,"x_min":38,"x_max":700,"o":"m 700 31 q 550 -12 635 -12 q 476 14 508 -12 q 436 82 444 40 l 431 82 q 335 10 396 36 q 213 -15 274 -15 q 38 154 38 -15 q 42 203 38 178 l 97 629 l 90 690 l 267 690 l 207 235 q 204 197 204 210 q 272 117 204 117 q 350 149 315 117 q 406 233 385 181 q 439 332 426 285 q 457 426 451 379 l 483 629 l 475 690 l 653 690 l 578 181 q 575 151 575 161 q 610 101 575 101 q 676 118 633 101 l 700 31 z "},"v":{"ha":582,"x_min":21,"x_max":638,"o":"m 638 690 l 315 -6 l 168 -6 l 21 690 l 190 690 l 264 326 q 278 210 272 286 q 314 326 306 308 l 475 690 l 638 690 z "},"w":{"ha":886,"x_min":21,"x_max":942,"o":"m 942 690 l 638 -6 l 500 -6 l 447 358 l 444 465 q 421 369 431 390 l 261 -6 l 124 -6 l 21 690 l 190 690 l 236 369 q 239 303 239 347 q 238 240 239 263 q 271 358 256 321 l 411 690 l 567 690 l 613 369 q 615 297 615 350 q 614 240 615 257 q 647 358 636 332 l 782 690 l 942 690 z "},"x":{"ha":646,"x_min":-28,"x_max":672,"o":"m 672 690 l 424 371 l 610 0 l 425 0 l 319 229 l 153 0 l -28 0 l 260 367 l 93 690 l 276 690 l 361 507 l 493 690 l 672 690 z "},"y":{"ha":582,"x_min":-260,"x_max":638,"o":"m 638 690 l 314 -4 q 271 -92 289 -57 q 217 -174 253 -126 q 146 -250 182 -222 q 54 -299 110 -278 q -65 -319 -1 -319 q -169 -306 -121 -319 q -239 -278 -218 -292 l -260 -264 l -189 -157 q -67 -208 -135 -208 q 14 -189 -24 -208 q 81 -132 51 -169 q 128 -67 111 -94 q 167 1 146 -40 l 21 690 l 190 690 q 267 307 257 368 q 272 203 268 297 q 306 307 297 286 q 403 522 338 383 q 482 690 469 661 l 638 690 z "},"z":{"ha":581,"x_min":-14,"x_max":581,"o":"m 581 604 l 201 117 l 533 117 l 518 0 l -14 0 l -14 85 l 361 575 l 82 575 l 97 690 l 581 690 l 581 604 z "},"{":{"ha":446,"x_min":53,"x_max":496,"o":"m 496 1026 l 483 940 q 388 917 415 940 q 351 824 361 893 l 321 593 q 225 411 303 451 q 276 290 276 379 q 272 231 276 260 l 242 0 q 238 -53 238 -31 q 257 -104 238 -92 q 329 -117 276 -117 l 343 -117 l 331 -204 l 271 -204 q 88 -26 88 -204 q 92 33 88 3 l 122 254 q 124 276 124 261 q 106 341 124 314 q 53 369 89 368 l 64 454 q 165 578 147 454 l 193 790 q 263 963 207 899 q 418 1026 319 1026 l 496 1026 z "},"|":{"ha":326,"x_min":97,"x_max":233,"o":"m 233 -161 l 97 -161 l 97 1035 l 233 1035 l 233 -161 z "},"}":{"ha":446,"x_min":-14,"x_max":428,"o":"m 428 456 l 417 371 q 349 335 375 371 q 317 254 322 300 l 288 33 q 46 -204 254 -204 l -14 -204 l -3 -118 q 96 -97 72 -118 q 129 0 119 -76 l 160 231 q 256 411 178 371 q 204 532 204 443 q 208 593 204 564 l 239 824 q 242 865 242 839 q 220 923 242 907 q 146 939 199 939 l 138 939 l 150 1026 l 226 1026 q 393 847 393 1026 q 389 790 393 819 l 360 578 q 358 546 358 568 q 428 456 358 457 z "},"~":{"ha":776,"x_min":49,"x_max":728,"o":"m 728 415 q 638 314 693 358 q 528 269 582 269 q 381 318 472 269 q 242 367 290 367 q 181 335 208 367 q 136 263 153 303 l 49 339 q 130 447 76 401 q 242 492 183 492 q 401 443 306 492 q 528 394 497 394 q 644 496 590 394 l 728 415 z "},"¡":{"ha":340,"x_min":0,"x_max":331,"o":"m 256 515 l 206 -133 q 193 -169 203 -158 q 158 -181 183 -181 q 49 -165 147 -181 q 0 -121 0 -157 q 3 -103 0 -114 l 133 532 l 256 515 m 222 631 q 147 663 179 631 q 115 738 115 694 q 147 814 115 782 q 222 846 178 846 q 299 814 267 846 q 331 738 331 782 q 299 662 331 693 q 222 631 267 631 z "},"¢":{"ha":585,"x_min":28,"x_max":611,"o":"m 611 642 l 518 536 q 392 590 457 590 q 285 536 331 590 q 222 416 240 482 q 204 290 204 350 q 237 155 204 210 q 344 100 269 100 q 492 168 404 100 l 542 49 q 308 -17 421 -17 l 289 -17 l 253 -178 l 157 -178 l 222 -7 q 76 91 124 17 q 28 272 28 165 q 123 567 28 443 q 383 707 218 690 l 417 864 l 514 864 l 457 706 q 611 642 549 693 z "},"£":{"ha":714,"x_min":-6,"x_max":785,"o":"m 785 874 l 644 799 q 528 900 610 900 q 440 863 474 900 q 399 767 407 825 l 378 613 l 549 613 l 531 475 l 358 475 l 314 139 l 701 139 l 682 0 l -6 0 l 14 139 l 136 139 l 181 475 l 79 475 l 97 613 l 200 613 l 218 747 q 326 958 235 882 q 547 1033 417 1033 q 785 874 710 1033 z "},"¤":{"ha":744,"x_min":51,"x_max":689,"o":"m 593 144 l 521 215 q 369 168 454 168 q 218 215 285 168 l 147 144 l 51 240 l 129 317 q 94 461 94 383 q 129 606 94 539 l 51 685 l 147 781 l 219 707 q 369 754 286 754 q 519 707 453 754 l 593 781 l 689 685 l 610 606 q 646 461 646 536 q 610 318 646 386 l 689 240 l 593 144 m 369 285 q 471 331 428 285 q 514 464 514 376 q 475 588 514 538 q 371 638 436 638 q 267 588 307 638 q 226 461 226 538 q 271 331 226 378 q 369 285 315 285 z "},"¥":{"ha":697,"x_min":33,"x_max":693,"o":"m 693 690 l 526 444 l 658 444 l 649 376 l 478 376 l 426 300 l 426 293 l 639 293 l 629 225 l 417 225 l 388 0 l 228 0 l 257 225 l 33 225 l 43 293 l 267 293 l 267 300 l 232 376 l 53 376 l 63 444 l 203 444 l 93 690 l 286 690 l 379 461 l 531 690 l 693 690 z "},"¦":{"ha":331,"x_min":97,"x_max":233,"o":"m 233 544 l 97 544 l 97 1035 l 233 1035 l 233 544 m 233 -161 l 97 -161 l 97 329 l 233 329 l 233 -161 z "},"§":{"ha":631,"x_min":-47,"x_max":690,"o":"m 690 1047 l 650 939 q 551 964 600 964 q 458 803 458 964 q 478 581 458 749 q 515 83 515 208 q 465 -72 515 -14 q 319 -143 414 -131 q 240 -275 304 -231 q 85 -319 176 -319 q -47 -290 11 -319 l -3 -186 q 89 -210 58 -210 q 175 -75 175 -210 q 171 52 175 -18 q 163 162 167 122 q 149 295 158 201 q 136 410 139 389 q 121 624 121 565 q 322 901 121 882 q 557 1076 360 1076 q 690 1047 611 1076 m 367 99 q 342 449 367 221 q 313 776 317 678 q 267 629 267 743 q 285 399 267 593 q 322 -25 319 49 q 367 99 367 4 z "},"¨":{"ha":383,"x_min":-8,"x_max":385,"o":"m 304 786 q 249 810 272 786 q 225 865 225 833 q 249 921 225 897 q 304 944 272 944 q 361 922 338 944 q 385 865 385 899 q 361 809 385 832 q 304 786 338 786 m 136 925 q 161 865 161 900 q 137 806 161 831 q 76 781 113 781 q 16 806 40 781 q -8 865 -8 831 q 16 925 -8 900 q 76 950 40 950 q 136 925 113 950 z "},"©":{"ha":882,"x_min":54,"x_max":824,"o":"m 439 -37 q 167 75 279 -37 q 54 347 54 188 q 167 619 54 507 q 439 732 279 732 q 710 619 597 732 q 824 347 824 506 q 710 76 824 189 q 439 -37 597 -37 m 671 114 q 768 347 768 211 q 672 580 768 483 q 439 676 575 676 q 206 580 303 676 q 110 347 110 483 q 206 115 110 211 q 439 18 303 18 q 671 114 575 18 m 625 536 l 554 458 q 469 496 510 496 q 383 435 414 496 q 353 313 353 375 q 440 199 353 199 q 539 244 490 199 l 579 156 q 411 111 486 111 q 272 161 322 111 q 222 300 222 211 q 297 503 222 421 q 490 585 371 585 q 625 536 565 585 z "},"ª":{"ha":515,"x_min":43,"x_max":514,"o":"m 514 543 q 415 514 465 514 q 367 532 388 514 q 340 578 346 550 l 335 578 q 201 511 285 511 q 83 567 124 511 q 43 704 43 624 q 110 906 43 818 q 292 993 178 993 q 403 947 357 993 l 424 985 l 482 985 l 432 643 q 431 624 431 636 q 453 590 431 590 q 497 601 468 590 l 514 543 m 417 431 l 406 350 l 90 350 l 101 431 l 417 431 m 364 881 q 285 917 326 917 q 208 876 239 917 q 166 790 176 835 q 156 704 156 744 q 222 589 156 589 q 281 615 256 589 q 322 688 306 640 q 347 778 338 736 q 364 881 356 821 z "},"«":{"ha":631,"x_min":32,"x_max":617,"o":"m 381 681 l 185 461 l 322 240 l 215 225 l 32 461 l 276 700 l 381 681 m 617 681 l 421 461 l 558 240 l 451 225 l 268 461 l 513 700 l 617 681 z "},"¬":{"ha":886,"x_min":97,"x_max":789,"o":"m 789 110 l 669 110 l 669 371 l 97 371 l 97 486 l 789 486 l 789 110 z "},"­":{"ha":435,"x_min":68,"x_max":375,"o":"m 375 292 l 68 292 l 68 424 l 375 424 l 375 292 z "},"®":{"ha":638,"x_min":29,"x_max":614,"o":"m 528 1054 q 614 847 614 968 q 528 640 614 726 q 321 554 442 554 q 115 640 200 554 q 29 847 29 726 q 115 1054 29 968 q 321 1140 200 1140 q 528 1054 442 1140 m 565 847 q 494 1019 565 947 q 321 1090 422 1090 q 149 1019 221 1090 q 78 847 78 949 q 149 675 78 746 q 321 604 221 604 q 494 675 422 604 q 565 847 565 746 m 468 690 l 368 690 l 297 824 l 282 824 l 264 690 l 181 690 l 226 1017 l 356 1017 q 458 940 458 1017 q 386 839 458 868 l 468 690 m 374 928 q 336 951 374 951 l 300 951 l 292 889 l 318 889 q 374 928 374 889 z "},"¯":{"ha":383,"x_min":-39,"x_max":419,"o":"m 419 826 l -39 826 l -39 915 l 419 915 l 419 826 z "},"°":{"ha":539,"x_min":68,"x_max":472,"o":"m 472 824 q 413 681 472 739 q 269 622 354 622 q 127 681 186 622 q 68 824 68 740 q 127 966 68 907 q 269 1025 186 1025 q 413 966 353 1025 q 472 824 472 907 m 347 744 q 379 824 379 778 q 347 903 379 869 q 269 936 315 936 q 192 903 224 936 q 161 824 161 869 q 192 744 161 778 q 269 711 224 711 q 347 744 315 711 z "},"±":{"ha":878,"x_min":93,"x_max":785,"o":"m 785 371 l 500 371 l 500 167 l 378 167 l 378 369 l 93 369 l 93 488 l 378 488 l 378 690 l 500 690 l 500 489 l 785 489 l 785 371 m 785 1 l 96 1 l 96 124 l 785 124 l 785 1 z "},"²":{"ha":632,"x_min":35,"x_max":568,"o":"m 488 608 l 35 608 l 35 679 q 76 710 50 690 q 166 788 101 731 q 280 896 231 844 q 370 1010 329 947 q 411 1118 411 1074 q 391 1169 411 1150 q 339 1189 371 1189 q 260 1169 304 1189 q 190 1128 217 1149 l 164 1108 l 118 1200 q 153 1228 131 1211 q 245 1272 176 1244 q 381 1299 314 1299 q 521 1256 474 1299 q 568 1143 568 1213 q 528 1005 568 1075 q 427 878 489 935 q 329 793 365 821 q 260 744 293 765 l 254 740 l 540 740 l 488 608 z "},"³":{"ha":632,"x_min":44,"x_max":553,"o":"m 51 590 l 44 686 q 297 742 206 694 q 389 863 389 790 q 263 933 389 933 l 217 931 l 213 1011 q 404 1146 404 1050 q 388 1177 404 1165 q 346 1189 371 1189 q 165 1119 256 1189 l 119 1204 q 245 1272 172 1244 q 381 1299 318 1299 q 503 1272 453 1299 q 553 1186 553 1246 q 517 1087 553 1128 q 419 1025 481 1046 q 542 892 542 1001 q 533 831 542 863 q 492 756 524 799 q 410 679 461 713 q 267 620 360 646 q 51 590 174 594 z "},"´":{"ha":326,"x_min":29,"x_max":414,"o":"m 414 1049 l 172 819 l 29 819 l 213 1049 l 414 1049 z "},"µ":{"ha":811,"x_min":54,"x_max":760,"o":"m 760 25 q 713 10 751 22 q 649 -7 674 -1 q 601 -12 624 -12 q 538 13 563 -12 q 511 79 514 39 q 336 -15 419 -15 q 253 6 290 -15 l 217 -260 l 54 -260 l 171 617 l 167 690 l 340 690 l 282 258 q 278 207 278 233 q 350 115 278 115 q 497 181 429 115 l 556 617 l 550 690 l 725 690 l 658 182 q 656 150 656 165 q 681 110 656 110 q 746 126 688 110 l 760 25 z "},"¶":{"ha":758,"x_min":7,"x_max":726,"o":"m 726 1061 l 715 986 l 638 986 l 488 -87 q 428 -196 479 -150 q 315 -242 378 -242 q 289 -239 308 -242 q 140 -321 233 -321 q 45 -283 83 -321 q 7 -189 7 -246 q 60 -65 7 -118 q 185 -12 114 -12 l 174 -87 q 110 -115 138 -87 q 82 -178 82 -142 q 102 -226 82 -207 q 151 -246 122 -246 q 210 -222 185 -246 q 240 -167 236 -199 l 336 525 q 173 587 238 525 q 108 747 108 649 q 209 978 108 894 q 460 1061 310 1061 l 726 1061 m 563 986 l 478 986 l 317 -167 l 322 -167 q 382 -143 356 -167 q 413 -87 408 -119 l 563 986 z "},"·":{"ha":407,"x_min":93,"x_max":308,"o":"m 200 251 q 125 283 157 251 q 93 358 93 315 q 124 435 93 403 q 200 467 156 467 q 276 435 244 467 q 308 358 308 403 q 276 283 308 314 q 200 251 244 251 z "},"¸":{"ha":318,"x_min":49,"x_max":290,"o":"m 290 -156 q 71 -306 290 -274 l 49 -219 q 65 -217 51 -219 q 85 -214 78 -215 q 104 -210 92 -212 q 124 -203 117 -207 q 139 -194 131 -200 q 151 -181 147 -189 q 154 -164 154 -174 q 75 -114 154 -137 l 165 18 l 271 18 l 221 -58 q 290 -156 290 -93 z "},"¹":{"ha":632,"x_min":53,"x_max":535,"o":"m 521 608 l 53 608 l 67 718 l 243 718 l 299 1139 l 126 1090 l 106 1188 q 354 1283 233 1226 l 467 1283 l 393 718 l 535 718 l 521 608 z "},"º":{"ha":493,"x_min":25,"x_max":465,"o":"m 465 796 q 396 593 465 678 q 211 508 326 508 q 74 562 124 508 q 25 706 25 615 q 94 908 25 822 q 278 993 164 993 q 416 939 367 993 q 465 796 465 885 m 358 431 l 347 350 l 32 350 l 43 431 l 358 431 m 347 800 q 267 917 347 917 q 191 876 221 917 q 151 791 161 836 q 142 701 142 746 q 224 585 142 585 q 298 624 268 585 q 338 709 328 664 q 347 800 347 754 z "},"»":{"ha":631,"x_min":21,"x_max":607,"o":"m 374 461 l 124 225 l 21 240 l 222 461 l 86 681 l 196 700 l 374 461 m 607 461 l 357 225 l 254 240 l 456 461 l 319 681 l 429 700 l 607 461 z "},"¼":{"ha":1457,"x_min":96,"x_max":1349,"o":"m 1222 0 l 1072 0 l 1090 140 l 803 140 l 803 213 l 1163 675 l 1311 675 l 1254 250 l 1349 250 l 1333 140 l 1240 140 l 1222 0 m 1104 250 l 1126 413 q 1134 456 1128 425 q 1147 511 1140 486 l 1153 536 q 1068 393 1121 463 l 958 250 l 1104 250 m 554 -37 l 444 -37 l 999 1046 l 1110 1046 l 554 -37 m 564 342 l 96 342 l 110 451 l 286 451 l 342 872 l 169 824 l 149 921 q 397 1017 276 960 l 510 1017 l 436 451 l 578 451 l 564 342 z "},"½":{"ha":1524,"x_min":97,"x_max":1428,"o":"m 1335 0 l 886 0 l 886 72 l 900 83 q 1045 208 974 143 q 1188 360 1117 272 q 1258 501 1258 449 q 1238 550 1258 532 q 1185 568 1217 568 q 1014 496 1110 568 l 968 592 q 1235 690 1101 690 q 1374 651 1319 690 q 1428 533 1428 613 q 1339 327 1428 432 q 1138 147 1250 222 l 1390 147 l 1335 0 m 556 -37 l 446 -37 l 1000 1046 l 1111 1046 l 556 -37 m 565 342 l 97 342 l 111 451 l 288 451 l 343 872 l 171 824 l 150 921 q 399 1017 278 960 l 511 1017 l 438 451 l 579 451 l 565 342 z "},"¾":{"ha":1394,"x_min":86,"x_max":1289,"o":"m 1043 250 l 1065 413 l 1093 536 q 1007 393 1058 461 l 899 250 l 1043 250 m 94 324 l 86 419 q 340 475 250 428 q 431 596 431 522 q 306 667 431 667 l 260 664 l 256 744 q 447 878 447 785 q 431 910 447 899 q 388 922 414 922 q 295 902 346 922 q 208 853 244 882 l 163 938 q 290 1005 217 978 q 425 1032 363 1032 q 546 1006 497 1032 q 594 921 594 981 q 558 821 594 863 q 464 758 522 779 q 583 625 583 735 q 575 564 583 596 q 535 489 567 532 q 454 413 504 446 q 310 354 404 381 q 94 324 217 328 m 1274 140 l 1179 140 l 1161 0 l 1011 0 l 1029 140 l 742 140 l 742 213 l 1101 675 l 1250 675 l 1193 250 l 1289 250 l 1274 140 m 494 -37 l 385 -37 l 939 1046 l 1050 1046 l 494 -37 z "},"¿":{"ha":581,"x_min":18,"x_max":546,"o":"m 525 347 q 490 241 525 286 q 406 169 456 196 q 308 119 357 143 q 224 63 258 96 q 189 -11 189 31 q 213 -54 189 -37 q 264 -71 238 -71 q 390 -39 329 -71 l 425 -156 q 250 -183 328 -183 q 88 -136 158 -183 q 18 -1 18 -89 q 54 119 18 67 q 141 203 90 172 q 243 257 192 233 q 331 306 294 281 q 367 360 367 332 q 338 403 367 386 q 278 426 308 421 q 218 431 247 431 l 190 431 l 226 560 q 361 537 299 556 q 474 469 424 518 q 525 347 525 419 m 438 640 q 363 672 394 640 q 331 747 331 704 q 362 824 331 792 q 438 856 393 856 q 514 824 482 856 q 546 747 546 792 q 514 672 546 703 q 438 640 482 640 z "},"À":{"ha":813,"x_min":-76,"x_max":757,"o":"m 564 1071 l 421 1071 l 211 1300 l 413 1300 l 564 1071 m 757 0 l 563 0 l 506 292 l 233 292 l 96 0 l -76 0 l 401 1017 l 551 1017 l 757 0 m 476 428 q 429 775 469 463 q 373 622 418 747 q 297 428 328 496 l 476 428 z "},"Á":{"ha":813,"x_min":-76,"x_max":769,"o":"m 769 1300 l 528 1071 l 385 1071 l 568 1300 l 769 1300 m 757 0 l 563 0 l 506 292 l 233 292 l 96 0 l -76 0 l 401 1017 l 551 1017 l 757 0 m 476 428 q 429 775 469 463 q 373 622 418 747 q 297 428 328 496 l 476 428 z "},"Â":{"ha":813,"x_min":-76,"x_max":757,"o":"m 681 1071 l 572 1071 l 489 1174 l 379 1071 l 274 1071 l 435 1272 l 571 1272 l 681 1071 m 757 0 l 563 0 l 506 292 l 233 292 l 96 0 l -76 0 l 401 1017 l 551 1017 l 757 0 m 476 428 q 429 775 469 463 q 373 622 418 747 q 297 428 328 496 l 476 428 z "},"Ã":{"ha":813,"x_min":-76,"x_max":757,"o":"m 719 1165 q 713 1154 717 1161 q 692 1129 708 1147 q 658 1097 676 1111 q 611 1072 640 1083 q 551 1061 582 1061 q 452 1081 510 1061 q 368 1101 394 1101 q 296 1067 339 1101 l 226 1104 q 233 1115 229 1108 q 254 1141 238 1122 q 290 1174 271 1160 q 341 1199 310 1188 q 407 1210 372 1210 q 504 1190 449 1210 q 578 1171 560 1171 q 656 1208 604 1171 l 719 1165 m 757 0 l 563 0 l 506 292 l 233 292 l 96 0 l -76 0 l 401 1017 l 551 1017 l 757 0 m 476 428 q 429 775 469 463 q 373 622 418 747 q 297 428 328 496 l 476 428 z "},"Ä":{"ha":813,"x_min":-76,"x_max":757,"o":"m 588 1060 q 532 1083 556 1060 q 508 1139 508 1107 q 532 1194 508 1171 q 588 1218 556 1218 q 644 1195 621 1218 q 668 1139 668 1172 q 644 1083 668 1106 q 588 1060 621 1060 m 419 1199 q 444 1139 444 1174 q 420 1079 444 1104 q 360 1054 396 1054 q 299 1079 324 1054 q 275 1139 275 1104 q 299 1199 275 1174 q 360 1224 324 1224 q 419 1199 396 1224 m 757 0 l 563 0 l 506 292 l 233 292 l 96 0 l -76 0 l 401 1017 l 551 1017 l 757 0 m 476 428 q 429 775 469 463 q 373 622 418 747 q 297 428 328 496 l 476 428 z "},"Å":{"ha":813,"x_min":-76,"x_max":757,"o":"m 597 1313 q 642 1208 642 1269 q 597 1103 642 1147 q 492 1060 553 1060 q 387 1103 431 1060 q 343 1208 343 1147 q 387 1313 343 1269 q 492 1357 431 1357 q 597 1313 553 1357 m 492 1264 q 451 1247 468 1264 q 435 1208 435 1231 q 451 1169 435 1186 q 492 1151 468 1151 q 531 1168 514 1151 q 547 1208 547 1185 q 531 1248 547 1232 q 492 1264 514 1264 m 757 0 l 563 0 l 506 292 l 233 292 l 96 0 l -76 0 l 401 1017 l 551 1017 l 757 0 m 476 428 q 429 775 469 463 q 373 622 418 747 q 297 428 328 496 l 476 428 z "},"Æ":{"ha":1197,"x_min":-76,"x_max":1232,"o":"m 1232 1017 l 1213 879 l 842 879 l 801 592 l 1100 592 l 1081 454 l 782 454 l 738 138 l 1108 138 l 1089 0 l 526 0 l 568 292 l 283 292 l 93 0 l -76 0 l 525 931 l 518 1017 l 1232 1017 m 647 879 l 596 781 l 372 428 l 586 428 l 647 879 z "},"Ç":{"ha":813,"x_min":24,"x_max":864,"o":"m 864 938 l 751 810 q 665 877 721 853 q 553 901 608 901 q 403 858 469 901 q 299 747 338 815 q 242 600 261 678 q 222 444 222 522 q 242 294 222 365 q 315 169 261 224 q 450 114 369 114 q 689 218 572 114 l 754 86 q 478 -14 608 -3 l 449 -58 q 518 -156 518 -93 q 299 -306 518 -274 l 276 -219 q 292 -217 279 -219 q 313 -214 306 -215 q 332 -210 319 -212 q 351 -203 344 -207 q 367 -194 358 -200 q 378 -181 375 -189 q 382 -164 382 -174 q 303 -114 382 -137 l 371 -14 q 113 113 201 1 q 24 407 24 225 q 60 640 24 528 q 164 840 97 751 q 335 983 231 929 q 564 1036 439 1036 q 731 1011 644 1036 q 864 938 817 986 z "},"È":{"ha":704,"x_min":15,"x_max":739,"o":"m 546 1071 l 403 1071 l 193 1300 l 394 1300 l 546 1071 m 739 1017 l 721 879 l 314 879 l 275 592 l 586 592 l 568 454 l 257 454 l 215 138 l 621 138 l 603 0 l 15 0 l 140 932 l 131 1017 l 739 1017 z "},"É":{"ha":704,"x_min":15,"x_max":760,"o":"m 760 1300 l 518 1071 l 375 1071 l 558 1300 l 760 1300 m 739 1017 l 721 879 l 314 879 l 275 592 l 586 592 l 568 454 l 257 454 l 215 138 l 621 138 l 603 0 l 15 0 l 140 932 l 131 1017 l 739 1017 z "},"Ê":{"ha":704,"x_min":15,"x_max":739,"o":"m 661 1071 l 553 1071 l 469 1174 l 360 1071 l 254 1071 l 415 1272 l 551 1272 l 661 1071 m 739 1017 l 721 879 l 314 879 l 275 592 l 586 592 l 568 454 l 257 454 l 215 138 l 621 138 l 603 0 l 15 0 l 140 932 l 131 1017 l 739 1017 z "},"Ë":{"ha":704,"x_min":15,"x_max":739,"o":"m 567 1061 q 511 1085 535 1061 q 488 1140 488 1108 q 511 1196 488 1172 q 567 1219 535 1219 q 624 1197 600 1219 q 647 1140 647 1174 q 624 1084 647 1107 q 567 1061 600 1061 m 399 1200 q 424 1140 424 1175 q 399 1081 424 1106 q 339 1056 375 1056 q 278 1081 303 1056 q 254 1140 254 1106 q 278 1200 254 1175 q 339 1225 303 1225 q 399 1200 375 1225 m 739 1017 l 721 879 l 314 879 l 275 592 l 586 592 l 568 454 l 257 454 l 215 138 l 621 138 l 603 0 l 15 0 l 140 932 l 131 1017 l 739 1017 z "},"Ì":{"ha":347,"x_min":-18,"x_max":335,"o":"m 335 1071 l 192 1071 l -18 1300 l 183 1300 l 335 1071 m 332 1017 l 197 0 l 15 0 l 140 932 l 132 1017 l 332 1017 z "},"Í":{"ha":347,"x_min":15,"x_max":540,"o":"m 540 1300 l 299 1071 l 156 1071 l 339 1300 l 540 1300 m 332 1017 l 197 0 l 15 0 l 140 932 l 132 1017 l 332 1017 z "},"Î":{"ha":347,"x_min":15,"x_max":450,"o":"m 450 1071 l 342 1071 l 258 1174 l 149 1071 l 43 1071 l 204 1272 l 340 1272 l 450 1071 m 332 1017 l 197 0 l 15 0 l 140 932 l 132 1017 l 332 1017 z "},"Ï":{"ha":347,"x_min":15,"x_max":442,"o":"m 361 1060 q 306 1083 329 1060 q 282 1139 282 1107 q 306 1194 282 1171 q 361 1218 329 1218 q 418 1195 394 1218 q 442 1139 442 1172 q 418 1083 442 1106 q 361 1060 394 1060 m 193 1199 q 218 1139 218 1174 q 194 1079 218 1104 q 133 1054 169 1054 q 73 1079 97 1054 q 49 1139 49 1104 q 73 1199 49 1174 q 133 1224 97 1224 q 193 1199 169 1224 m 332 1017 l 197 0 l 15 0 l 140 932 l 132 1017 l 332 1017 z "},"Ð":{"ha":922,"x_min":-33,"x_max":899,"o":"m 358 0 l 15 0 l 75 450 l -33 450 l -18 572 l 92 572 l 139 933 q 135 975 139 938 q 129 1017 131 1013 l 494 1017 q 793 906 688 1017 q 899 604 899 794 q 850 346 899 474 q 707 132 801 218 q 358 0 564 0 m 215 138 l 369 138 q 556 206 478 138 q 667 374 633 275 q 701 586 701 472 q 644 797 701 715 q 465 879 588 879 l 314 879 l 274 572 l 472 572 l 456 450 l 257 450 l 215 138 z "},"Ñ":{"ha":947,"x_min":15,"x_max":932,"o":"m 814 1164 q 807 1153 811 1160 q 787 1128 803 1146 q 753 1096 771 1110 q 706 1071 735 1082 q 646 1060 676 1060 q 547 1080 604 1060 q 463 1100 489 1100 q 390 1065 433 1100 l 321 1103 q 328 1114 324 1107 q 349 1140 332 1121 q 385 1172 365 1158 q 435 1197 404 1186 q 501 1208 467 1208 q 599 1189 543 1208 q 672 1169 654 1169 q 750 1207 699 1169 l 814 1164 m 932 1017 l 794 -7 l 646 -7 l 306 690 q 263 783 297 707 q 262 754 263 774 q 260 719 261 735 q 258 690 260 703 l 165 0 l 15 0 l 139 932 l 132 1017 l 353 1017 l 653 407 q 663 385 657 399 q 678 350 669 371 q 693 315 686 329 q 695 366 694 329 q 699 422 696 403 l 778 1017 l 932 1017 z "},"Ò":{"ha":982,"x_min":24,"x_max":958,"o":"m 657 1071 l 514 1071 l 304 1300 l 506 1300 l 657 1071 m 958 610 q 922 377 958 489 q 818 178 885 265 q 647 38 751 90 q 417 -15 542 -15 q 126 101 228 -15 q 24 410 24 218 q 84 712 24 572 q 268 942 144 851 q 557 1032 392 1032 q 854 918 750 1032 q 958 610 958 804 m 763 603 q 711 815 763 731 q 542 900 660 900 q 415 868 472 900 q 323 785 358 836 q 263 669 288 735 q 228 540 239 604 q 218 414 218 476 q 269 202 218 288 q 439 117 321 117 q 591 164 525 117 q 692 287 657 211 q 745 443 728 363 q 763 603 763 524 z "},"Ó":{"ha":982,"x_min":24,"x_max":958,"o":"m 885 1300 l 643 1071 l 500 1071 l 683 1300 l 885 1300 m 958 610 q 922 377 958 489 q 818 178 885 265 q 647 38 751 90 q 417 -15 542 -15 q 126 101 228 -15 q 24 410 24 218 q 84 712 24 572 q 268 942 144 851 q 557 1032 392 1032 q 854 918 750 1032 q 958 610 958 804 m 763 603 q 711 815 763 731 q 542 900 660 900 q 415 868 472 900 q 323 785 358 836 q 263 669 288 735 q 228 540 239 604 q 218 414 218 476 q 269 202 218 288 q 439 117 321 117 q 591 164 525 117 q 692 287 657 211 q 745 443 728 363 q 763 603 763 524 z "},"Ô":{"ha":982,"x_min":24,"x_max":958,"o":"m 781 1071 l 672 1071 l 589 1174 l 479 1071 l 374 1071 l 535 1272 l 671 1272 l 781 1071 m 958 610 q 922 377 958 489 q 818 178 885 265 q 647 38 751 90 q 417 -15 542 -15 q 126 101 228 -15 q 24 410 24 218 q 84 712 24 572 q 268 942 144 851 q 557 1032 392 1032 q 854 918 750 1032 q 958 610 958 804 m 763 603 q 711 815 763 731 q 542 900 660 900 q 415 868 472 900 q 323 785 358 836 q 263 669 288 735 q 228 540 239 604 q 218 414 218 476 q 269 202 218 288 q 439 117 321 117 q 591 164 525 117 q 692 287 657 211 q 745 443 728 363 q 763 603 763 524 z "},"Õ":{"ha":982,"x_min":24,"x_max":958,"o":"m 813 1165 q 806 1154 810 1161 q 785 1129 801 1147 q 751 1097 769 1111 q 704 1072 733 1083 q 644 1061 675 1061 q 545 1081 603 1061 q 461 1101 488 1101 q 389 1067 432 1101 l 319 1104 q 326 1115 322 1108 q 347 1141 331 1122 q 383 1174 364 1160 q 434 1199 403 1188 q 500 1210 465 1210 q 597 1190 542 1210 q 671 1171 653 1171 q 749 1208 697 1171 l 813 1165 m 958 610 q 922 377 958 489 q 818 178 885 265 q 647 38 751 90 q 417 -15 542 -15 q 126 101 228 -15 q 24 410 24 218 q 84 712 24 572 q 268 942 144 851 q 557 1032 392 1032 q 854 918 750 1032 q 958 610 958 804 m 763 603 q 711 815 763 731 q 542 900 660 900 q 415 868 472 900 q 323 785 358 836 q 263 669 288 735 q 228 540 239 604 q 218 414 218 476 q 269 202 218 288 q 439 117 321 117 q 591 164 525 117 q 692 287 657 211 q 745 443 728 363 q 763 603 763 524 z "},"Ö":{"ha":982,"x_min":24,"x_max":958,"o":"m 694 1060 q 639 1083 663 1060 q 615 1139 615 1107 q 639 1194 615 1171 q 694 1218 663 1218 q 751 1195 728 1218 q 775 1139 775 1172 q 751 1083 775 1106 q 694 1060 728 1060 m 526 1199 q 551 1139 551 1174 q 527 1079 551 1104 q 467 1054 503 1054 q 406 1079 431 1054 q 382 1139 382 1104 q 406 1199 382 1174 q 467 1224 431 1224 q 526 1199 503 1224 m 958 610 q 922 377 958 489 q 818 178 885 265 q 647 38 751 90 q 417 -15 542 -15 q 126 101 228 -15 q 24 410 24 218 q 84 712 24 572 q 268 942 144 851 q 557 1032 392 1032 q 854 918 750 1032 q 958 610 958 804 m 763 603 q 711 815 763 731 q 542 900 660 900 q 415 868 472 900 q 323 785 358 836 q 263 669 288 735 q 228 540 239 604 q 218 414 218 476 q 269 202 218 288 q 439 117 321 117 q 591 164 525 117 q 692 287 657 211 q 745 443 728 363 q 763 603 763 524 z "},"×":{"ha":742,"x_min":83,"x_max":658,"o":"m 658 144 l 572 58 l 371 258 l 169 58 l 83 144 l 285 344 l 83 546 l 169 632 l 371 432 l 572 632 l 658 546 l 457 344 l 658 144 z "},"Ø":{"ha":983,"x_min":17,"x_max":965,"o":"m 965 610 q 928 377 965 489 q 824 178 892 265 q 653 38 757 90 q 422 -15 549 -15 q 214 35 303 -15 l 115 -92 l 17 -15 l 119 117 q 31 410 31 226 q 91 712 31 572 q 275 942 151 851 q 564 1032 399 1032 q 792 975 701 1032 l 867 1069 l 965 993 l 885 890 q 965 610 965 783 m 692 847 q 549 900 636 900 q 422 868 479 900 q 330 785 365 836 q 270 669 294 735 q 235 540 246 604 q 225 414 225 476 q 243 275 225 338 l 692 847 m 769 603 q 756 726 769 671 l 313 161 q 446 117 365 117 q 598 164 532 117 q 699 287 664 211 q 752 443 735 363 q 769 603 769 524 z "},"Ù":{"ha":915,"x_min":49,"x_max":900,"o":"m 625 1071 l 482 1071 l 272 1300 l 474 1300 l 625 1071 m 900 1017 l 815 386 q 687 88 789 192 q 381 -15 585 -15 q 135 64 222 -15 q 49 300 49 143 q 54 386 49 347 l 128 933 l 118 1017 l 325 1017 l 235 338 q 232 300 232 313 q 282 166 232 215 q 418 117 332 117 q 582 182 517 117 q 660 340 647 247 l 751 1017 l 900 1017 z "},"Ú":{"ha":915,"x_min":49,"x_max":900,"o":"m 849 1300 l 607 1071 l 464 1071 l 647 1300 l 849 1300 m 900 1017 l 815 386 q 687 88 789 192 q 381 -15 585 -15 q 135 64 222 -15 q 49 300 49 143 q 54 386 49 347 l 128 933 l 118 1017 l 325 1017 l 235 338 q 232 300 232 313 q 282 166 232 215 q 418 117 332 117 q 582 182 517 117 q 660 340 647 247 l 751 1017 l 900 1017 z "},"Û":{"ha":915,"x_min":49,"x_max":900,"o":"m 746 1071 l 638 1071 l 554 1174 l 444 1071 l 339 1071 l 500 1272 l 636 1272 l 746 1071 m 900 1017 l 815 386 q 687 88 789 192 q 381 -15 585 -15 q 135 64 222 -15 q 49 300 49 143 q 54 386 49 347 l 128 933 l 118 1017 l 325 1017 l 235 338 q 232 300 232 313 q 282 166 232 215 q 418 117 332 117 q 582 182 517 117 q 660 340 647 247 l 751 1017 l 900 1017 z "},"Ü":{"ha":915,"x_min":49,"x_max":900,"o":"m 661 1064 q 606 1088 629 1064 q 582 1143 582 1111 q 606 1199 582 1175 q 661 1222 629 1222 q 718 1199 694 1222 q 742 1143 742 1176 q 718 1087 742 1110 q 661 1064 694 1064 m 493 1203 q 518 1143 518 1178 q 494 1083 518 1108 q 433 1058 469 1058 q 373 1083 397 1058 q 349 1143 349 1108 q 373 1203 349 1178 q 433 1228 397 1228 q 493 1203 469 1228 m 900 1017 l 815 386 q 687 88 789 192 q 381 -15 585 -15 q 135 64 222 -15 q 49 300 49 143 q 54 386 49 347 l 128 933 l 118 1017 l 325 1017 l 235 338 q 232 300 232 313 q 282 166 232 215 q 418 117 332 117 q 582 182 517 117 q 660 340 647 247 l 751 1017 l 900 1017 z "},"Ý":{"ha":726,"x_min":49,"x_max":803,"o":"m 744 1301 l 503 1072 l 360 1072 l 543 1301 l 744 1301 m 803 1017 l 438 454 l 376 0 l 196 0 l 256 458 l 49 1017 l 251 1017 l 385 656 l 622 1017 l 803 1017 z "},"Þ":{"ha":799,"x_min":40,"x_max":756,"o":"m 221 0 l 40 0 l 164 932 q 160 973 164 933 q 157 1017 157 1013 l 358 1017 l 338 857 l 440 857 q 669 798 583 857 q 756 607 756 739 q 722 446 756 517 q 631 333 688 375 q 506 270 574 292 q 363 249 438 249 l 254 249 l 221 0 m 274 383 l 385 383 q 511 441 463 383 q 560 586 560 499 q 527 684 560 649 q 431 719 494 719 l 318 719 l 274 383 z "},"ß":{"ha":744,"x_min":-282,"x_max":710,"o":"m 710 307 q 616 76 710 168 q 383 -17 522 -17 q 217 25 297 -17 l 283 132 q 383 108 343 108 q 488 159 447 108 q 529 274 529 210 q 493 358 529 324 q 415 408 457 392 q 336 453 372 424 q 300 522 300 482 q 323 592 300 561 q 378 643 346 622 q 444 685 411 664 q 499 739 476 706 q 522 815 522 772 q 499 874 522 849 q 442 899 475 899 q 267 644 303 899 l 172 -58 q 85 -251 156 -182 q -100 -319 15 -319 q -199 -304 -153 -319 q -264 -272 -244 -289 l -282 -257 l -217 -140 q -111 -194 -167 -194 q -30 -166 -57 -194 q 7 -61 -3 -137 l 92 564 l -8 564 l 8 690 l 108 690 l 110 697 q 223 942 131 851 q 458 1033 315 1033 q 631 984 563 1033 q 700 836 700 935 q 678 730 700 775 q 624 661 656 685 q 562 622 593 638 q 508 592 531 606 q 486 563 486 578 q 521 526 486 544 q 598 488 556 507 q 675 422 640 469 q 710 307 710 375 z "},"à":{"ha":729,"x_min":29,"x_max":736,"o":"m 736 31 q 589 -12 671 -12 q 515 15 547 -12 q 475 82 483 42 l 469 82 q 267 -17 396 -17 q 89 67 149 -17 q 29 274 29 151 q 71 479 29 382 q 200 642 113 576 q 403 707 288 707 q 569 638 504 707 l 601 694 l 689 694 l 614 181 q 611 151 611 161 q 646 101 611 101 q 713 118 669 101 l 736 31 m 511 538 q 392 593 456 593 q 299 558 339 593 q 238 469 258 522 q 207 366 217 417 q 197 274 197 315 q 299 99 197 99 q 386 138 349 99 q 448 248 424 176 q 485 385 472 319 q 511 538 499 450 m 494 822 l 351 822 l 142 1051 l 343 1051 l 494 822 z "},"á":{"ha":729,"x_min":29,"x_max":736,"o":"m 732 1051 l 490 822 l 347 822 l 531 1051 l 732 1051 m 736 31 q 589 -12 671 -12 q 515 15 547 -12 q 475 82 483 42 l 469 82 q 267 -17 396 -17 q 89 67 149 -17 q 29 274 29 151 q 71 479 29 382 q 200 642 113 576 q 403 707 288 707 q 569 638 504 707 l 601 694 l 689 694 l 614 181 q 611 151 611 161 q 646 101 611 101 q 713 118 669 101 l 736 31 m 511 538 q 392 593 456 593 q 299 558 339 593 q 238 469 258 522 q 207 366 217 417 q 197 274 197 315 q 299 99 197 99 q 386 138 349 99 q 448 248 424 176 q 485 385 472 319 q 511 538 499 450 z "},"â":{"ha":729,"x_min":29,"x_max":736,"o":"m 650 822 l 542 822 l 458 925 l 349 822 l 243 822 l 404 1024 l 540 1024 l 650 822 m 736 31 q 589 -12 671 -12 q 515 15 547 -12 q 475 82 483 42 l 469 82 q 267 -17 396 -17 q 89 67 149 -17 q 29 274 29 151 q 71 479 29 382 q 200 642 113 576 q 403 707 288 707 q 569 638 504 707 l 601 694 l 689 694 l 614 181 q 611 151 611 161 q 646 101 611 101 q 713 118 669 101 l 736 31 m 511 538 q 392 593 456 593 q 299 558 339 593 q 238 469 258 522 q 207 366 217 417 q 197 274 197 315 q 299 99 197 99 q 386 138 349 99 q 448 248 424 176 q 485 385 472 319 q 511 538 499 450 z "},"ã":{"ha":729,"x_min":29,"x_max":736,"o":"m 699 907 q 692 896 696 903 q 672 871 688 889 q 638 839 656 853 q 590 814 619 825 q 531 803 561 803 q 431 823 489 803 q 347 843 374 843 q 275 808 318 843 l 206 846 q 213 857 208 850 q 233 883 217 864 q 269 915 250 901 q 320 940 289 929 q 386 951 351 951 q 483 932 428 951 q 557 913 539 913 q 635 950 583 913 l 699 907 m 736 31 q 589 -12 671 -12 q 515 15 547 -12 q 475 82 483 42 l 469 82 q 267 -17 396 -17 q 89 67 149 -17 q 29 274 29 151 q 71 479 29 382 q 200 642 113 576 q 403 707 288 707 q 569 638 504 707 l 601 694 l 689 694 l 614 181 q 611 151 611 161 q 646 101 611 101 q 713 118 669 101 l 736 31 m 511 538 q 392 593 456 593 q 299 558 339 593 q 238 469 258 522 q 207 366 217 417 q 197 274 197 315 q 299 99 197 99 q 386 138 349 99 q 448 248 424 176 q 485 385 472 319 q 511 538 499 450 z "},"ä":{"ha":729,"x_min":29,"x_max":736,"o":"m 540 800 q 485 824 508 800 q 461 879 461 847 q 485 935 461 911 q 540 958 508 958 q 597 935 574 958 q 621 879 621 913 q 597 823 621 846 q 540 800 574 800 m 372 939 q 397 879 397 914 q 373 819 397 844 q 313 794 349 794 q 252 819 276 794 q 228 879 228 844 q 252 939 228 914 q 313 964 276 964 q 372 939 349 964 m 736 31 q 589 -12 671 -12 q 515 15 547 -12 q 475 82 483 42 l 469 82 q 267 -17 396 -17 q 89 67 149 -17 q 29 274 29 151 q 71 479 29 382 q 200 642 113 576 q 403 707 288 707 q 569 638 504 707 l 601 694 l 689 694 l 614 181 q 611 151 611 161 q 646 101 611 101 q 713 118 669 101 l 736 31 m 511 538 q 392 593 456 593 q 299 558 339 593 q 238 469 258 522 q 207 366 217 417 q 197 274 197 315 q 299 99 197 99 q 386 138 349 99 q 448 248 424 176 q 485 385 472 319 q 511 538 499 450 z "},"å":{"ha":729,"x_min":29,"x_max":736,"o":"m 567 1033 q 611 929 611 990 q 567 824 611 868 q 461 781 522 781 q 356 824 400 781 q 313 929 313 868 q 356 1034 313 990 q 461 1078 400 1078 q 567 1033 522 1078 m 461 985 q 421 968 438 985 q 404 929 404 951 q 421 890 404 907 q 461 872 438 872 q 500 889 483 872 q 517 929 517 906 q 500 969 517 953 q 461 985 483 985 m 736 31 q 589 -12 671 -12 q 515 15 547 -12 q 475 82 483 42 l 469 82 q 267 -17 396 -17 q 89 67 149 -17 q 29 274 29 151 q 71 479 29 382 q 200 642 113 576 q 403 707 288 707 q 569 638 504 707 l 601 694 l 689 694 l 614 181 q 611 151 611 161 q 646 101 611 101 q 713 118 669 101 l 736 31 m 511 538 q 392 593 456 593 q 299 558 339 593 q 238 469 258 522 q 207 366 217 417 q 197 274 197 315 q 299 99 197 99 q 386 138 349 99 q 448 248 424 176 q 485 385 472 319 q 511 538 499 450 z "},"æ":{"ha":1058,"x_min":29,"x_max":1044,"o":"m 615 592 q 736 682 669 656 q 857 708 803 708 q 994 667 944 708 q 1044 547 1044 626 q 1024 458 1044 503 q 960 370 1004 414 q 828 299 915 326 q 624 269 742 271 q 668 148 629 190 q 764 106 707 106 q 964 190 853 106 l 1022 75 q 1010 65 1018 71 q 974 43 1001 58 q 917 15 947 28 q 841 -7 888 3 q 747 -17 794 -17 q 511 100 588 -17 q 267 -17 411 -17 q 89 67 149 -17 q 29 274 29 151 q 71 479 29 382 q 200 642 113 576 q 403 707 288 707 q 615 592 544 707 m 874 544 q 819 592 874 592 q 714 540 774 592 q 632 388 654 489 q 807 435 740 390 q 874 544 874 481 m 511 538 q 392 593 456 593 q 299 558 339 593 q 238 469 258 522 q 207 366 217 417 q 197 274 197 315 q 299 99 197 99 q 386 138 349 99 q 448 248 424 176 q 485 385 472 319 q 511 538 499 450 z "},"ç":{"ha":585,"x_min":24,"x_max":607,"o":"m 607 642 l 511 532 q 388 593 453 593 q 299 562 338 593 q 240 481 261 531 q 210 383 219 432 q 200 290 200 335 q 231 158 200 211 q 333 106 263 106 q 488 168 403 106 l 538 49 q 354 -14 440 -3 l 325 -58 q 394 -156 394 -93 q 175 -306 394 -274 l 153 -219 q 169 -217 156 -219 q 189 -214 182 -215 q 208 -210 196 -212 q 228 -203 221 -207 q 243 -194 235 -200 q 255 -181 251 -189 q 258 -164 258 -174 q 179 -114 258 -137 l 249 -12 q 85 85 146 6 q 24 274 24 164 q 129 581 24 454 q 406 708 235 708 q 513 690 456 708 q 607 642 571 672 z "},"è":{"ha":644,"x_min":29,"x_max":628,"o":"m 628 547 q 608 458 628 503 q 543 370 588 414 q 411 299 499 326 q 206 269 324 271 q 251 148 211 190 q 347 106 290 106 q 547 190 436 106 l 606 75 q 593 65 601 71 q 558 43 585 58 q 501 15 531 28 q 424 -7 471 3 q 331 -17 378 -17 q 115 63 200 -17 q 29 279 29 142 q 55 426 29 351 q 128 564 81 500 q 250 668 175 628 q 415 708 325 708 q 569 667 510 708 q 628 547 628 625 m 457 544 q 403 592 457 592 q 297 540 357 592 q 215 388 238 489 q 390 435 324 390 q 457 544 457 481 m 465 822 l 322 822 l 113 1051 l 314 1051 l 465 822 z "},"é":{"ha":644,"x_min":29,"x_max":718,"o":"m 718 1051 l 476 822 l 333 822 l 517 1051 l 718 1051 m 628 547 q 608 458 628 503 q 543 370 588 414 q 411 299 499 326 q 206 269 324 271 q 251 148 211 190 q 347 106 290 106 q 547 190 436 106 l 606 75 q 593 65 601 71 q 558 43 585 58 q 501 15 531 28 q 424 -7 471 3 q 331 -17 378 -17 q 115 63 200 -17 q 29 279 29 142 q 55 426 29 351 q 128 564 81 500 q 250 668 175 628 q 415 708 325 708 q 569 667 510 708 q 628 547 628 625 m 457 544 q 403 592 457 592 q 297 540 357 592 q 215 388 238 489 q 390 435 324 390 q 457 544 457 481 z "},"ê":{"ha":644,"x_min":29,"x_max":628,"o":"m 608 822 l 500 822 l 417 925 l 307 822 l 201 822 l 363 1024 l 499 1024 l 608 822 m 628 547 q 608 458 628 503 q 543 370 588 414 q 411 299 499 326 q 206 269 324 271 q 251 148 211 190 q 347 106 290 106 q 547 190 436 106 l 606 75 q 593 65 601 71 q 558 43 585 58 q 501 15 531 28 q 424 -7 471 3 q 331 -17 378 -17 q 115 63 200 -17 q 29 279 29 142 q 55 426 29 351 q 128 564 81 500 q 250 668 175 628 q 415 708 325 708 q 569 667 510 708 q 628 547 628 625 m 457 544 q 403 592 457 592 q 297 540 357 592 q 215 388 238 489 q 390 435 324 390 q 457 544 457 481 z "},"ë":{"ha":644,"x_min":29,"x_max":628,"o":"m 514 800 q 458 824 482 800 q 435 879 435 847 q 458 935 435 911 q 514 958 482 958 q 571 935 547 958 q 594 879 594 913 q 571 823 594 846 q 514 800 547 800 m 346 939 q 371 879 371 914 q 347 819 371 844 q 286 794 322 794 q 226 819 250 794 q 201 879 201 844 q 226 939 201 914 q 286 964 250 964 q 346 939 322 964 m 628 547 q 608 458 628 503 q 543 370 588 414 q 411 299 499 326 q 206 269 324 271 q 251 148 211 190 q 347 106 290 106 q 547 190 436 106 l 606 75 q 593 65 601 71 q 558 43 585 58 q 501 15 531 28 q 424 -7 471 3 q 331 -17 378 -17 q 115 63 200 -17 q 29 279 29 142 q 55 426 29 351 q 128 564 81 500 q 250 668 175 628 q 415 708 325 708 q 569 667 510 708 q 628 547 628 625 m 457 544 q 403 592 457 592 q 297 540 357 592 q 215 388 238 489 q 390 435 324 390 q 457 544 457 481 z "},"ì":{"ha":318,"x_min":-43,"x_max":310,"o":"m 289 690 l 207 76 l 211 0 l 39 0 l 121 615 l 117 690 l 289 690 m 310 822 l 167 822 l -43 1051 l 158 1051 l 310 822 z "},"í":{"ha":318,"x_min":38,"x_max":506,"o":"m 288 690 l 206 76 l 210 0 l 38 0 l 119 615 l 115 690 l 288 690 m 506 1051 l 264 822 l 121 822 l 304 1051 l 506 1051 z "},"î":{"ha":318,"x_min":10,"x_max":417,"o":"m 417 822 l 308 822 l 225 925 l 115 822 l 10 822 l 171 1024 l 307 1024 l 417 822 m 288 690 l 206 76 l 210 0 l 38 0 l 119 615 l 115 690 l 288 690 z "},"ï":{"ha":318,"x_min":19,"x_max":413,"o":"m 289 690 l 207 76 l 211 0 l 39 0 l 121 615 l 117 690 l 289 690 m 332 786 q 276 810 300 786 q 253 865 253 833 q 276 921 253 897 q 332 944 300 944 q 389 922 365 944 q 413 865 413 899 q 389 809 413 832 q 332 786 365 786 m 164 925 q 189 865 189 900 q 165 806 189 831 q 104 781 140 781 q 44 806 68 781 q 19 865 19 831 q 44 925 19 900 q 104 950 68 950 q 164 925 140 950 z "},"ð":{"ha":744,"x_min":22,"x_max":671,"o":"m 626 1004 l 496 933 q 671 426 671 669 q 568 114 671 243 q 299 -15 465 -15 q 95 69 168 -15 q 22 286 22 153 q 129 583 22 457 q 394 708 236 708 q 436 706 411 708 q 361 860 396 803 l 229 789 l 181 869 l 311 940 q 253 1015 281 982 l 379 1088 q 412 1049 390 1075 q 443 1011 433 1024 l 585 1088 l 626 1004 m 314 100 q 410 138 371 100 q 466 233 449 175 q 490 338 483 292 q 496 425 496 383 q 379 594 496 594 q 286 556 325 594 q 229 459 247 517 q 204 356 211 401 q 197 275 197 310 q 314 100 197 100 z "},"ñ":{"ha":683,"x_min":38,"x_max":654,"o":"m 654 907 q 647 896 651 903 q 627 871 643 889 q 593 839 611 853 q 546 814 575 825 q 486 803 517 803 q 387 823 444 803 q 303 843 329 843 q 231 808 274 843 l 161 846 q 168 857 164 850 q 189 883 172 864 q 225 915 206 901 q 276 940 244 929 q 342 951 307 951 q 439 932 383 951 q 513 913 494 913 q 590 950 539 913 l 654 907 m 649 538 q 644 467 649 500 l 592 75 l 596 0 l 422 0 l 482 450 q 486 500 486 475 q 417 575 486 575 q 337 550 386 575 q 264 501 288 525 l 196 0 l 38 0 l 104 494 q 108 575 108 535 q 89 685 108 654 l 257 706 q 268 617 268 667 q 481 710 381 710 q 649 538 649 710 z "},"ò":{"ha":706,"x_min":29,"x_max":676,"o":"m 676 410 q 632 205 676 301 q 501 46 588 108 q 304 -17 414 -17 q 102 67 175 -17 q 29 282 29 150 q 133 579 29 450 q 401 708 238 708 q 603 625 531 708 q 676 410 676 542 m 503 424 q 386 594 503 594 q 298 560 336 594 q 240 474 260 526 q 212 370 221 421 q 203 274 203 319 q 319 94 203 94 q 410 129 371 94 q 467 218 449 164 q 494 324 486 272 q 503 424 503 375 m 478 822 l 335 822 l 125 1051 l 326 1051 l 478 822 z "},"ó":{"ha":706,"x_min":29,"x_max":710,"o":"m 710 1050 l 468 821 l 325 821 l 508 1050 l 710 1050 m 676 410 q 632 205 676 301 q 501 46 588 108 q 304 -17 414 -17 q 102 67 175 -17 q 29 282 29 150 q 133 579 29 450 q 401 708 238 708 q 603 625 531 708 q 676 410 676 542 m 503 424 q 386 594 503 594 q 298 560 336 594 q 240 474 260 526 q 212 370 221 421 q 203 274 203 319 q 319 94 203 94 q 410 129 371 94 q 467 218 449 164 q 494 324 486 272 q 503 424 503 375 z "},"ô":{"ha":706,"x_min":29,"x_max":676,"o":"m 628 821 l 519 821 l 436 924 l 326 821 l 221 821 l 382 1022 l 518 1022 l 628 821 m 676 410 q 632 205 676 301 q 501 46 588 108 q 304 -17 414 -17 q 102 67 175 -17 q 29 282 29 150 q 133 579 29 450 q 401 708 238 708 q 603 625 531 708 q 676 410 676 542 m 503 424 q 386 594 503 594 q 298 560 336 594 q 240 474 260 526 q 212 370 221 421 q 203 274 203 319 q 319 94 203 94 q 410 129 371 94 q 467 218 449 164 q 494 324 486 272 q 503 424 503 375 z "},"õ":{"ha":706,"x_min":29,"x_max":676,"o":"m 665 907 q 658 896 663 903 q 638 871 654 889 q 604 839 622 853 q 557 814 586 825 q 497 803 528 803 q 398 823 456 803 q 314 843 340 843 q 242 808 285 843 l 172 846 q 179 857 175 850 q 200 883 183 864 q 236 915 217 901 q 287 940 256 929 q 353 951 318 951 q 450 932 394 951 q 524 913 506 913 q 601 950 550 913 l 665 907 m 676 410 q 632 205 676 301 q 501 46 588 108 q 304 -17 414 -17 q 102 67 175 -17 q 29 282 29 150 q 133 579 29 450 q 401 708 238 708 q 603 625 531 708 q 676 410 676 542 m 503 424 q 386 594 503 594 q 298 560 336 594 q 240 474 260 526 q 212 370 221 421 q 203 274 203 319 q 319 94 203 94 q 410 129 371 94 q 467 218 449 164 q 494 324 486 272 q 503 424 503 375 z "},"ö":{"ha":706,"x_min":29,"x_max":676,"o":"m 538 800 q 482 824 506 800 q 458 879 458 847 q 482 935 458 911 q 538 958 506 958 q 594 935 571 958 q 618 879 618 913 q 594 823 618 846 q 538 800 571 800 m 369 939 q 394 879 394 914 q 370 819 394 844 q 310 794 346 794 q 249 819 274 794 q 225 879 225 844 q 249 939 225 914 q 310 964 274 964 q 369 939 346 964 m 676 410 q 632 205 676 301 q 501 46 588 108 q 304 -17 414 -17 q 102 67 175 -17 q 29 282 29 150 q 133 579 29 450 q 401 708 238 708 q 603 625 531 708 q 676 410 676 542 m 503 424 q 386 594 503 594 q 298 560 336 594 q 240 474 260 526 q 212 370 221 421 q 203 274 203 319 q 319 94 203 94 q 410 129 371 94 q 467 218 449 164 q 494 324 486 272 q 503 424 503 375 z "},"÷":{"ha":875,"x_min":94,"x_max":783,"o":"m 783 283 l 94 283 l 94 406 l 783 406 l 783 283 m 438 -15 q 363 17 394 -15 q 331 92 331 49 q 362 168 331 136 q 438 200 393 200 q 514 168 482 200 q 546 92 546 136 q 514 16 546 47 q 438 -15 482 -15 m 436 492 q 361 524 393 492 q 329 599 329 556 q 360 675 329 643 q 436 707 392 707 q 513 675 481 707 q 544 599 544 643 q 513 523 544 554 q 436 492 481 492 z "},"ø":{"ha":771,"x_min":7,"x_max":728,"o":"m 728 711 l 643 601 q 699 410 699 522 q 654 205 699 301 q 523 46 610 108 q 326 -17 436 -17 q 190 15 247 -17 l 100 -101 l 7 -40 l 107 89 q 51 282 51 168 q 156 579 51 450 q 424 708 260 708 q 561 676 501 708 l 635 772 l 728 711 m 478 569 q 408 594 450 594 q 320 560 358 594 q 263 474 282 526 q 234 370 243 421 q 225 274 225 319 l 225 243 l 478 569 m 525 424 l 525 449 l 271 121 q 342 94 300 94 q 432 129 393 94 q 490 218 471 164 q 517 324 508 272 q 525 424 525 375 z "},"ù":{"ha":708,"x_min":38,"x_max":700,"o":"m 700 31 q 550 -12 635 -12 q 476 14 508 -12 q 436 82 444 40 l 431 82 q 335 10 396 36 q 213 -15 274 -15 q 38 154 38 -15 q 42 203 38 178 l 97 629 l 90 690 l 267 690 l 207 235 q 204 197 204 222 q 272 117 204 117 q 350 149 315 117 q 406 233 385 181 q 439 332 426 285 q 457 426 451 379 l 483 629 l 475 690 l 653 690 l 578 181 q 575 151 575 171 q 610 101 575 101 q 676 118 633 101 l 700 31 m 450 822 l 307 822 l 97 1051 l 299 1051 l 450 822 z "},"ú":{"ha":708,"x_min":38,"x_max":700,"o":"m 699 1050 l 457 821 l 314 821 l 497 1050 l 699 1050 m 700 31 q 550 -12 635 -12 q 476 14 508 -12 q 436 82 444 40 l 431 82 q 335 10 396 36 q 213 -15 274 -15 q 38 154 38 -15 q 42 203 38 178 l 97 629 l 90 690 l 267 690 l 207 235 q 204 197 204 210 q 272 117 204 117 q 350 149 315 117 q 406 233 385 181 q 439 332 426 285 q 457 426 451 379 l 483 629 l 475 690 l 653 690 l 578 181 q 575 151 575 161 q 610 101 575 101 q 676 118 633 101 l 700 31 z "},"û":{"ha":708,"x_min":38,"x_max":700,"o":"m 586 821 l 478 821 l 394 924 l 285 821 l 179 821 l 340 1022 l 476 1022 l 586 821 m 700 31 q 550 -12 635 -12 q 476 14 508 -12 q 436 82 444 40 l 431 82 q 335 10 396 36 q 213 -15 274 -15 q 38 154 38 -15 q 42 203 38 178 l 97 629 l 90 690 l 267 690 l 207 235 q 204 197 204 210 q 272 117 204 117 q 350 149 315 117 q 406 233 385 181 q 439 332 426 285 q 457 426 451 379 l 483 629 l 475 690 l 653 690 l 578 181 q 575 151 575 161 q 610 101 575 101 q 676 118 633 101 l 700 31 z "},"ü":{"ha":708,"x_min":38,"x_max":700,"o":"m 496 800 q 440 824 464 800 q 417 879 417 847 q 440 935 417 911 q 496 958 464 958 q 553 935 529 958 q 576 879 576 913 q 553 823 576 846 q 496 800 529 800 m 328 939 q 353 879 353 914 q 328 819 353 844 q 268 794 304 794 q 208 819 232 794 q 183 879 183 844 q 208 939 183 914 q 268 964 232 964 q 328 939 304 964 m 700 31 q 550 -12 635 -12 q 476 14 508 -12 q 436 82 444 40 l 431 82 q 335 10 396 36 q 213 -15 274 -15 q 38 154 38 -15 q 42 203 38 178 l 97 629 l 90 690 l 267 690 l 207 235 q 204 197 204 210 q 272 117 204 117 q 350 149 315 117 q 406 233 385 181 q 439 332 426 285 q 457 426 451 379 l 483 629 l 475 690 l 653 690 l 578 181 q 575 151 575 161 q 610 101 575 101 q 676 118 633 101 l 700 31 z "},"ý":{"ha":582,"x_min":-260,"x_max":651,"o":"m 651 1051 l 410 822 l 267 822 l 450 1051 l 651 1051 m 638 690 l 314 -4 q 271 -92 289 -57 q 217 -174 253 -126 q 146 -250 182 -222 q 54 -299 110 -278 q -65 -319 -1 -319 q -169 -306 -121 -319 q -239 -278 -218 -292 l -260 -264 l -189 -157 q -67 -208 -135 -208 q 14 -189 -24 -208 q 81 -132 51 -169 q 128 -67 111 -94 q 167 1 146 -40 l 21 690 l 190 690 q 267 307 257 368 q 272 203 268 297 q 306 307 297 286 q 403 522 338 383 q 482 690 469 661 l 638 690 z "},"þ":{"ha":775,"x_min":19,"x_max":718,"o":"m 357 1067 l 300 635 q 493 706 389 706 q 660 619 603 706 q 718 413 718 533 q 622 110 718 236 q 357 -17 525 -17 q 221 25 275 -17 l 178 -301 l 19 -301 l 189 993 q 185 1067 189 1046 l 357 1067 m 285 511 l 254 285 q 251 239 251 269 q 279 137 251 176 q 367 97 307 97 q 453 133 417 97 q 508 219 490 168 q 535 315 526 271 q 543 390 543 358 q 514 522 543 467 q 422 578 485 578 q 285 511 349 578 z "},"ÿ":{"ha":582,"x_min":-260,"x_max":638,"o":"m 458 800 q 403 824 426 800 q 379 879 379 847 q 403 935 379 911 q 458 958 426 958 q 515 935 492 958 q 539 879 539 913 q 515 823 539 846 q 458 800 492 800 m 290 939 q 315 879 315 914 q 291 819 315 844 q 231 794 267 794 q 170 819 194 794 q 146 879 146 844 q 170 939 146 914 q 231 964 194 964 q 290 939 267 964 m 638 690 l 314 -4 q 271 -92 289 -57 q 217 -174 253 -126 q 146 -250 182 -222 q 54 -299 110 -278 q -65 -319 -1 -319 q -169 -306 -121 -319 q -239 -278 -218 -292 l -260 -264 l -189 -157 q -67 -208 -135 -208 q 14 -189 -24 -208 q 81 -132 51 -169 q 128 -67 111 -94 q 167 1 146 -40 l 21 690 l 190 690 q 267 307 257 368 q 272 203 268 297 q 306 307 297 286 q 403 522 338 383 q 482 690 469 661 l 638 690 z "},"ı":{"ha":317,"x_min":38,"x_max":288,"o":"m 288 690 l 206 76 l 210 0 l 38 0 l 119 615 l 115 690 l 288 690 z "},"Ł":{"ha":683,"x_min":-8,"x_max":617,"o":"m 599 0 l 36 0 l 82 340 l -8 299 l 7 433 l 99 475 l 160 933 q 157 976 160 939 q 154 1017 154 1014 l 354 1017 l 294 564 l 571 692 l 553 556 l 276 429 l 238 138 l 617 138 l 599 0 z "},"ł":{"ha":349,"x_min":-12,"x_max":350,"o":"m 182 0 l 21 0 l 71 381 l -12 342 l 4 476 l 89 515 l 151 993 l 147 1067 l 322 1067 l 260 594 l 350 636 l 332 500 l 242 458 l 182 0 z "},"Œ":{"ha":1379,"x_min":24,"x_max":1414,"o":"m 1414 1017 l 1396 879 l 989 879 l 950 592 l 1261 592 l 1243 454 l 932 454 l 890 138 l 1296 138 l 1278 0 l 690 0 l 703 94 q 572 9 639 33 q 417 -15 504 -15 q 126 101 228 -15 q 24 410 24 218 q 84 712 24 572 q 268 942 144 851 q 557 1032 392 1032 q 814 926 717 1032 l 826 1017 l 1414 1017 m 763 603 q 711 815 763 731 q 542 900 660 900 q 415 868 472 900 q 323 785 358 836 q 263 669 288 735 q 228 540 239 604 q 218 414 218 476 q 269 202 218 288 q 439 117 321 117 q 591 164 525 117 q 692 287 657 211 q 745 443 728 363 q 763 603 763 524 z "},"œ":{"ha":1107,"x_min":29,"x_max":1093,"o":"m 1093 547 q 1073 458 1093 503 q 1008 370 1053 414 q 877 299 964 326 q 672 269 790 271 q 717 148 678 190 q 813 106 756 106 q 1013 190 901 106 l 1071 75 q 1058 65 1067 71 q 1023 43 1050 58 q 966 15 996 28 q 890 -7 936 3 q 796 -17 843 -17 q 554 90 638 -17 q 304 -17 451 -17 q 102 67 175 -17 q 29 282 29 150 q 133 579 29 450 q 401 708 238 708 q 624 599 550 708 q 881 708 731 708 q 1034 667 975 708 q 1093 547 1093 625 m 922 544 q 868 592 922 592 q 763 540 822 592 q 681 388 703 489 q 856 435 789 390 q 922 544 922 481 m 503 424 q 386 594 503 594 q 298 560 336 594 q 240 474 260 526 q 212 370 221 421 q 203 274 203 319 q 319 94 203 94 q 410 129 371 94 q 467 218 449 164 q 494 324 486 272 q 503 424 503 375 z "},"Š":{"ha":688,"x_min":-50,"x_max":707,"o":"m 667 1274 l 506 1072 l 369 1072 l 260 1274 l 368 1274 l 451 1171 l 561 1274 l 667 1274 m 707 950 l 625 822 q 535 878 594 856 q 426 900 475 900 q 319 863 364 900 q 275 764 275 826 q 302 690 275 724 q 369 634 329 656 q 457 583 410 613 q 544 525 504 554 q 612 446 585 496 q 639 333 639 396 q 527 80 639 176 q 254 -17 415 -17 q -50 68 74 -17 l 38 218 q 256 117 129 117 q 385 163 331 117 q 440 283 440 210 q 403 372 440 333 q 312 440 365 411 q 204 501 258 469 q 113 588 150 533 q 75 714 75 642 q 185 953 75 874 q 463 1033 296 1033 q 594 1009 519 1033 q 707 950 668 985 z "},"š":{"ha":515,"x_min":-21,"x_max":544,"o":"m 544 1024 l 383 822 l 247 822 l 138 1024 l 246 1024 l 329 921 l 439 1024 l 544 1024 m 526 665 l 454 549 q 331 592 410 592 q 260 572 289 592 q 231 513 231 551 q 256 462 231 483 q 319 424 282 440 q 392 388 356 408 q 455 331 429 368 q 481 239 481 293 q 397 50 481 117 q 190 -17 313 -17 q -21 44 74 -17 l 51 158 q 193 99 142 99 q 272 128 239 99 q 304 204 304 157 q 265 269 304 242 q 178 314 225 297 q 92 372 132 331 q 53 475 53 413 q 135 649 53 590 q 338 708 218 708 q 526 665 446 708 z "},"Ÿ":{"ha":726,"x_min":49,"x_max":803,"o":"m 557 1064 q 501 1088 525 1064 q 478 1143 478 1111 q 501 1199 478 1175 q 557 1222 525 1222 q 614 1199 590 1222 q 638 1143 638 1176 q 614 1087 638 1110 q 557 1064 590 1064 m 389 1203 q 414 1143 414 1178 q 390 1083 414 1108 q 329 1058 365 1058 q 269 1083 293 1058 q 244 1143 244 1108 q 269 1203 244 1178 q 329 1228 293 1228 q 389 1203 365 1228 m 803 1017 l 438 454 l 376 0 l 196 0 l 256 458 l 49 1017 l 251 1017 l 385 656 l 622 1017 l 803 1017 z "},"Ž":{"ha":758,"x_min":-24,"x_max":779,"o":"m 682 1272 l 521 1071 l 385 1071 l 275 1272 l 383 1272 l 467 1169 l 576 1272 l 682 1272 m 779 915 l 228 138 l 686 138 l 667 0 l -24 0 l -24 114 l 524 879 l 113 879 l 131 1017 l 779 1017 l 779 915 z "},"ž":{"ha":581,"x_min":-14,"x_max":585,"o":"m 585 1024 l 424 822 l 288 822 l 178 1024 l 286 1024 l 369 921 l 479 1024 l 585 1024 m 581 604 l 201 117 l 533 117 l 518 0 l -14 0 l -14 85 l 361 575 l 82 575 l 97 690 l 581 690 l 581 604 z "},"ƒ":{"ha":722,"x_min":-182,"x_max":931,"o":"m 931 1018 l 847 908 q 790 951 818 939 q 718 964 761 964 q 610 913 660 964 q 538 807 561 861 q 496 690 514 753 l 660 690 l 629 575 l 465 575 l 289 -65 q 0 -319 218 -319 q -105 -304 -50 -319 q -182 -258 -160 -289 l -101 -167 q -58 -197 -86 -183 q -7 -210 -29 -210 q 135 -49 90 -210 l 307 575 l 197 575 l 226 690 l 336 690 q 390 842 360 776 q 467 963 421 907 q 582 1049 514 1019 q 739 1078 650 1078 q 931 1018 850 1078 z "},"ˆ":{"ha":353,"x_min":-25,"x_max":382,"o":"m 382 817 l 274 817 l 190 919 l 81 817 l -25 817 l 136 1018 l 272 1018 l 382 817 z "},"ˇ":{"ha":382,"x_min":3,"x_max":410,"o":"m 410 1018 l 249 817 l 113 817 l 3 1018 l 111 1018 l 194 915 l 304 1018 l 410 1018 z "},"˘":{"ha":356,"x_min":-4,"x_max":417,"o":"m 417 1017 q 333 853 389 911 q 176 794 278 794 q 42 844 89 794 q -4 975 -4 893 l -1 1017 l 92 1017 q 193 919 100 919 q 321 1017 286 919 l 417 1017 z "},"˙":{"ha":396,"x_min":115,"x_max":285,"o":"m 260 928 q 285 868 285 903 q 260 808 285 833 q 200 783 236 783 q 140 808 164 783 q 115 868 115 833 q 140 928 115 903 q 200 953 164 953 q 260 928 236 953 z "},"˚":{"ha":390,"x_min":47,"x_max":346,"o":"m 301 990 q 346 886 346 947 q 301 781 346 825 q 196 738 257 738 q 91 781 135 738 q 47 886 47 825 q 91 991 47 947 q 196 1035 135 1035 q 301 990 257 1035 m 196 942 q 156 925 172 942 q 139 886 139 908 q 156 847 139 864 q 196 829 172 829 q 235 846 218 829 q 251 886 251 863 q 235 926 251 910 q 196 942 218 942 z "},"˛":{"ha":408,"x_min":32,"x_max":378,"o":"m 378 19 q 335 -2 374 17 q 278 -33 297 -21 q 229 -65 258 -44 q 186 -108 200 -86 q 172 -151 172 -129 q 224 -194 172 -194 q 346 -144 267 -194 l 368 -214 q 160 -293 258 -293 q 68 -266 104 -293 q 32 -186 32 -239 q 87 -74 32 -126 q 208 8 142 -21 q 333 46 275 36 l 378 19 z "},"˜":{"ha":378,"x_min":-58,"x_max":435,"o":"m 435 906 q 428 894 432 901 q 408 869 424 888 q 374 838 392 851 q 326 813 356 824 q 267 801 297 801 q 167 822 225 801 q 83 842 110 842 q 11 807 54 842 l -58 844 q -51 856 -56 849 q -31 881 -47 863 q 6 914 -14 900 q 56 939 25 928 q 122 950 88 950 q 219 931 164 950 q 293 911 275 911 q 371 949 319 911 l 435 906 z "},"˝":{"ha":563,"x_min":0,"x_max":529,"o":"m 529 1017 l 347 819 l 218 819 l 342 1017 l 529 1017 m 311 1017 l 129 819 l 0 819 l 124 1017 l 311 1017 z "},"π":{"ha":929,"x_min":61,"x_max":925,"o":"m 765 136 l 794 43 q 644 -14 733 -14 q 531 40 567 -14 q 494 178 494 94 q 528 385 494 265 q 613 565 561 504 l 439 565 l 433 528 q 419 430 425 465 q 402 335 414 394 q 377 238 390 275 q 340 151 364 200 q 288 71 317 103 q 218 8 260 39 q 126 -42 176 -22 l 89 35 q 185 128 146 71 q 235 251 225 186 l 269 515 q 278 543 271 524 q 286 565 285 563 l 271 565 q 195 532 231 565 q 146 453 160 499 l 61 478 q 151 635 83 579 q 318 690 219 690 l 751 690 q 822 696 796 690 q 892 722 847 701 l 925 642 q 746 565 875 579 q 649 208 649 326 q 713 125 649 125 q 765 136 736 125 z "},"–":{"ha":765,"x_min":43,"x_max":724,"o":"m 724 424 l 704 293 l 43 293 l 63 424 l 724 424 z "},"—":{"ha":1251,"x_min":46,"x_max":1213,"o":"m 1213 424 l 1193 293 l 46 293 l 65 424 l 1213 424 z "},"‘":{"ha":336,"x_min":46,"x_max":290,"o":"m 290 969 q 239 917 265 950 q 213 863 213 885 q 238 824 213 854 q 263 758 263 794 q 230 680 263 711 q 153 649 197 649 q 76 679 107 649 q 46 756 46 710 q 104 902 46 831 q 242 1025 163 974 l 290 969 z "},"’":{"ha":336,"x_min":46,"x_max":290,"o":"m 290 918 q 232 771 290 842 q 94 649 174 700 l 46 703 q 98 756 72 724 q 124 811 124 789 q 99 849 124 819 q 74 915 74 879 q 107 993 74 961 q 183 1025 140 1025 q 260 994 231 1025 q 290 918 290 964 z "},"‚":{"ha":350,"x_min":7,"x_max":251,"o":"m 251 86 q 192 -62 251 10 q 53 -186 132 -135 l 7 -129 q 85 -22 85 -64 q 60 16 85 -14 q 35 82 35 46 q 67 161 35 129 q 144 193 100 193 q 222 162 192 193 q 251 86 251 131 z "},"“":{"ha":596,"x_min":42,"x_max":550,"o":"m 286 969 q 235 917 261 950 q 208 863 208 885 q 233 824 208 854 q 258 758 258 794 q 226 680 258 711 q 149 649 193 649 q 72 679 103 649 q 42 756 42 710 q 100 902 42 831 q 238 1025 158 974 l 286 969 m 550 969 q 499 917 525 950 q 472 863 472 885 q 497 824 472 854 q 522 758 522 794 q 490 680 522 711 q 413 649 457 649 q 336 679 367 649 q 306 756 306 710 q 364 902 306 831 q 501 1025 422 974 l 550 969 z "},"”":{"ha":600,"x_min":46,"x_max":554,"o":"m 290 918 q 232 771 290 842 q 94 649 174 700 l 46 703 q 98 756 72 724 q 124 811 124 789 q 99 849 124 819 q 74 915 74 879 q 107 993 74 961 q 183 1025 140 1025 q 260 994 231 1025 q 290 918 290 964 m 554 918 q 496 771 554 842 q 358 649 438 700 l 310 703 q 362 756 336 724 q 388 811 388 789 q 363 849 388 819 q 338 915 338 879 q 371 993 338 961 q 447 1025 404 1025 q 524 994 494 1025 q 554 918 554 964 z "},"„":{"ha":611,"x_min":7,"x_max":515,"o":"m 251 86 q 193 -61 251 10 q 56 -183 135 -132 l 7 -129 q 59 -76 33 -108 q 85 -21 85 -43 q 60 17 85 -12 q 35 83 35 47 q 68 161 35 129 q 144 193 101 193 q 222 163 192 193 q 251 86 251 132 m 515 86 q 457 -61 515 10 q 319 -183 399 -132 l 271 -129 q 323 -76 297 -108 q 349 -21 349 -43 q 324 17 349 -12 q 299 83 299 47 q 332 161 299 129 q 408 193 365 193 q 485 163 456 193 q 515 86 515 132 z "},"†":{"ha":681,"x_min":64,"x_max":632,"o":"m 632 668 l 539 597 l 386 628 l 393 429 l 265 -192 l 204 -192 l 239 429 l 299 628 l 140 597 l 64 674 l 161 749 l 310 714 l 301 914 l 392 1028 l 460 914 l 397 714 l 558 749 l 632 668 z "},"‡":{"ha":726,"x_min":40,"x_max":676,"o":"m 676 668 l 583 597 l 431 628 l 439 429 l 378 201 l 531 229 l 608 156 l 510 81 l 371 115 l 371 -85 l 282 -193 l 213 -85 l 275 115 l 117 81 l 40 163 l 136 229 l 283 201 l 283 429 l 343 628 l 185 597 l 110 674 l 206 749 l 356 714 l 346 914 l 438 1028 l 504 914 l 442 714 l 604 749 l 676 668 z "},"•":{"ha":613,"x_min":90,"x_max":524,"o":"m 460 649 q 524 496 524 586 q 461 342 524 406 q 308 279 399 279 q 154 342 218 279 q 90 496 90 406 q 153 649 90 586 q 307 713 217 713 q 460 649 397 713 z "},"…":{"ha":1146,"x_min":124,"x_max":1026,"o":"m 231 -17 q 156 15 188 -17 q 124 90 124 47 q 155 167 124 135 q 231 199 186 199 q 307 167 275 199 q 339 90 339 135 q 307 15 339 46 q 231 -17 275 -17 m 574 -17 q 499 15 531 -17 q 467 90 467 47 q 498 167 467 135 q 574 199 529 199 q 650 167 618 199 q 682 90 682 135 q 650 15 682 46 q 574 -17 618 -17 m 918 -17 q 843 15 875 -17 q 811 90 811 47 q 842 167 811 135 q 918 199 874 199 q 994 167 963 199 q 1026 90 1026 135 q 994 15 1026 46 q 918 -17 963 -17 z "},"‰":{"ha":1461,"x_min":35,"x_max":1463,"o":"m 1463 340 q 1391 98 1463 201 q 1188 -6 1319 -6 q 1038 56 1088 -6 q 988 218 988 117 q 1059 460 988 357 q 1263 563 1131 563 q 1413 502 1363 563 q 1463 340 1463 442 m 968 340 q 897 98 968 201 q 693 -6 825 -6 q 543 56 593 -6 q 493 218 493 117 q 565 460 493 357 q 768 563 636 563 q 918 502 868 563 q 968 340 968 442 m 835 971 l 246 -17 l 153 -17 l 699 896 l 483 896 q 511 769 511 844 q 440 526 511 631 q 235 422 368 422 q 85 483 136 422 q 35 646 35 544 q 106 888 35 785 q 311 990 178 990 q 407 971 367 990 l 835 971 m 1319 343 q 1249 453 1319 453 q 1190 426 1214 453 q 1153 360 1165 400 q 1135 283 1140 319 q 1131 215 1131 247 q 1201 104 1131 104 q 1260 131 1236 104 q 1297 197 1285 157 q 1315 274 1310 238 q 1319 343 1319 311 m 825 343 q 754 453 825 453 q 695 426 719 453 q 658 360 671 400 q 641 283 646 319 q 636 215 636 247 q 707 104 636 104 q 766 131 742 104 q 803 197 790 157 q 820 274 815 238 q 825 343 825 311 m 368 771 q 296 881 368 881 q 237 855 261 881 q 201 788 213 829 q 184 711 189 747 q 179 643 179 675 q 250 532 179 532 q 309 558 285 532 q 346 625 333 585 q 363 702 358 665 q 368 771 368 739 z "},"‹":{"ha":422,"x_min":46,"x_max":394,"o":"m 394 681 l 199 461 l 336 240 l 229 225 l 46 461 l 290 700 l 394 681 z "},"›":{"ha":431,"x_min":36,"x_max":389,"o":"m 389 461 l 139 225 l 36 240 l 238 461 l 101 681 l 211 700 l 389 461 z "},"⁄":{"ha":183,"x_min":-243,"x_max":422,"o":"m -133 -37 l -243 -37 l 311 1046 l 422 1046 l -133 -37 z "},"€":{"ha":667,"x_min":31,"x_max":715,"o":"m 647 49 q 526 -2 576 13 q 410 -17 476 -17 q 217 50 290 -17 q 133 240 143 117 l 31 240 l 40 306 l 135 306 q 147 392 136 347 l 51 392 l 60 457 l 165 457 q 304 644 211 579 q 525 708 397 708 q 626 690 574 708 q 715 642 679 672 l 622 536 q 496 590 561 590 q 404 551 446 590 q 340 457 363 511 l 564 457 l 556 392 l 319 392 q 308 306 308 336 l 544 306 l 535 240 l 311 240 q 356 139 319 178 q 450 100 392 100 q 504 111 476 100 q 549 133 532 122 q 596 168 565 144 l 647 49 z "},"™":{"ha":789,"x_min":71,"x_max":726,"o":"m 726 1017 l 681 690 l 599 690 l 622 868 q 528 690 586 799 l 478 690 l 431 876 l 406 690 l 333 690 l 379 1017 l 482 1017 l 526 828 l 625 1017 l 726 1017 m 363 1017 l 354 953 l 253 953 l 217 690 l 132 690 l 169 953 l 71 953 l 79 1017 l 363 1017 z "},"Ω":{"ha":1085,"x_min":0,"x_max":1006,"o":"m 950 0 l 561 0 l 575 106 q 684 183 636 128 q 758 309 732 239 q 796 449 783 379 q 808 586 808 519 q 757 806 808 718 q 592 894 706 894 q 465 858 522 894 q 372 766 407 822 q 312 640 336 710 q 278 505 288 569 q 268 383 268 440 q 401 106 268 161 l 388 0 l 0 0 l 17 138 l 106 138 l 199 129 q 110 253 143 168 q 78 436 78 338 q 228 860 78 688 q 610 1032 379 1032 q 903 915 800 1032 q 1006 607 1006 799 q 944 326 1006 467 q 783 129 882 186 l 879 138 l 968 138 l 950 0 z "},"∂":{"ha":771,"x_min":26,"x_max":714,"o":"m 513 535 q 517 606 514 540 q 509 701 517 656 q 483 790 501 747 q 431 858 465 832 q 347 883 396 883 q 266 869 306 883 q 208 842 226 856 l 190 828 l 139 932 q 169 960 149 943 q 258 1004 189 976 q 404 1032 326 1032 q 637 924 560 1032 q 714 624 714 817 q 681 352 714 471 q 601 167 649 233 q 490 57 553 100 q 377 -1 428 14 q 279 -15 326 -15 q 197 -3 238 -15 q 117 34 157 8 q 51 111 76 60 q 26 232 26 163 q 53 377 26 313 q 117 480 79 442 q 204 543 156 518 q 292 578 253 568 q 365 588 332 588 q 415 583 392 588 q 455 572 439 579 q 481 558 471 564 q 501 544 492 551 q 513 535 511 536 m 493 407 q 381 451 458 451 q 301 429 336 451 q 246 374 265 407 q 217 315 226 340 q 206 272 208 289 q 203 238 203 261 q 301 122 203 122 q 385 160 347 122 q 445 251 424 197 q 478 344 467 304 q 493 407 490 383 z "},"∆":{"ha":876,"x_min":-42,"x_max":796,"o":"m 783 0 l -42 0 l -29 93 l 433 1017 l 576 1017 l 796 93 l 783 0 m 143 138 l 589 138 q 469 676 524 414 q 462 754 465 701 q 457 814 458 807 q 404 675 418 703 q 143 138 238 322 z "},"∏":{"ha":1157,"x_min":53,"x_max":1104,"o":"m 963 -318 l 775 -318 l 775 879 l 381 879 l 381 -318 l 192 -318 l 192 879 l 53 879 l 53 1017 l 1104 1017 l 1104 879 l 963 879 l 963 -318 z "},"∑":{"ha":1008,"x_min":78,"x_max":931,"o":"m 931 -318 l 78 -318 l 78 -137 l 456 385 l 78 879 l 78 1017 l 917 1017 l 917 879 l 293 879 q 361 806 356 813 l 650 431 l 300 -57 q 265 -97 289 -72 q 235 -128 240 -122 l 931 -128 l 931 -318 z "},"−":{"ha":883,"x_min":97,"x_max":786,"o":"m 786 285 l 97 285 l 97 407 l 786 407 l 786 285 z "},"√":{"ha":840,"x_min":-82,"x_max":900,"o":"m 425 -319 l 272 -319 l 78 286 l -47 244 l -82 357 l 182 450 l 358 -108 l 771 1344 l 900 1344 l 425 -319 z "},"∞":{"ha":1128,"x_min":97,"x_max":1031,"o":"m 564 251 q 449 143 506 183 q 326 103 393 103 q 159 171 221 103 q 97 346 97 239 q 159 521 97 453 q 326 589 221 589 q 449 549 393 589 q 564 440 506 508 q 678 549 622 508 q 801 589 735 589 q 969 521 907 589 q 1031 346 1031 453 q 969 171 1031 239 q 801 103 907 103 q 678 143 735 103 q 564 251 622 183 m 647 346 q 803 256 732 256 q 869 280 846 256 q 893 346 893 304 q 869 412 893 388 q 803 436 846 436 q 647 346 732 436 m 481 346 q 325 436 396 436 q 258 412 282 436 q 235 346 235 388 q 258 280 235 304 q 325 256 282 256 q 481 346 396 256 z "},"∫":{"ha":356,"x_min":-32,"x_max":392,"o":"m -32 -315 l -32 -204 q 71 -159 35 -204 q 107 -47 107 -114 l 107 729 q 170 957 107 883 q 392 1031 233 1031 l 392 919 q 276 763 276 919 l 276 -14 q 203 -242 276 -168 q -32 -315 131 -315 z "},"≈":{"ha":913,"x_min":103,"x_max":810,"o":"m 713 579 l 810 517 q 726 417 779 458 q 613 375 672 375 q 444 424 544 375 q 313 472 344 472 q 200 390 254 472 l 103 453 q 187 553 133 511 q 300 594 240 594 q 468 546 368 594 q 600 497 568 497 q 713 579 658 497 m 713 314 l 810 251 q 726 151 779 193 q 613 110 672 110 q 444 158 544 110 q 313 207 344 207 q 200 125 254 207 l 103 188 q 187 288 133 246 q 300 329 240 329 q 468 281 368 329 q 600 232 568 232 q 713 314 658 232 z "},"≠":{"ha":875,"x_min":92,"x_max":783,"o":"m 783 151 l 407 151 l 336 0 l 204 0 l 275 151 l 92 151 l 92 274 l 332 274 l 399 419 l 92 419 l 92 542 l 456 542 l 525 690 l 661 690 l 592 542 l 783 542 l 783 419 l 533 419 l 465 274 l 783 274 l 783 151 z "},"≤":{"ha":875,"x_min":92,"x_max":785,"o":"m 783 147 l 92 393 l 92 465 l 783 710 l 783 585 l 425 458 q 278 429 365 436 q 422 403 351 426 l 783 275 l 783 147 m 785 1 l 96 1 l 96 124 l 785 124 l 785 1 z "},"≥":{"ha":875,"x_min":92,"x_max":785,"o":"m 785 393 l 92 147 l 92 275 l 453 403 q 599 429 525 428 q 450 458 513 436 l 92 585 l 92 710 l 785 465 l 785 393 m 782 1 l 93 1 l 93 124 l 782 124 l 782 1 z "},"◊":{"ha":700,"x_min":35,"x_max":665,"o":"m 379 -19 l 321 -19 l 35 503 l 321 1026 l 379 1026 l 665 503 l 379 -19 m 353 140 l 542 503 l 353 867 l 347 867 l 157 503 l 347 140 l 353 140 z "},"ﬁ":{"ha":736,"x_min":-236,"x_max":729,"o":"m 729 876 l 574 833 q 547 922 574 881 q 478 964 519 964 q 308 690 347 964 l 707 690 l 625 76 l 628 0 l 456 0 l 533 575 l 293 575 l 207 -65 q -46 -319 172 -319 q -153 -304 -97 -319 q -236 -258 -210 -289 l -169 -167 q -122 -197 -153 -183 q -68 -210 -90 -210 q 50 -49 28 -210 l 135 575 l 25 575 l 39 690 l 149 690 q 181 842 160 776 q 239 963 201 907 q 339 1048 276 1018 q 486 1078 401 1078 q 547 1069 514 1078 q 619 1039 581 1060 q 688 976 657 1018 q 729 876 718 933 z "},"ﬂ":{"ha":735,"x_min":-236,"x_max":763,"o":"m 763 1068 l 629 75 l 633 0 l 457 0 l 571 857 q 572 879 572 864 q 492 964 572 964 q 412 936 447 964 q 356 862 376 908 q 326 775 336 815 q 308 690 315 735 l 472 690 l 457 575 l 293 575 l 207 -65 q -46 -319 172 -319 q -153 -304 -97 -319 q -236 -258 -210 -289 l -169 -167 q -122 -197 -153 -183 q -68 -210 -90 -210 q 50 -49 28 -210 l 135 575 l 25 575 l 39 690 l 149 690 q 181 842 160 776 q 241 963 203 907 q 344 1048 279 1018 q 496 1078 408 1078 q 565 1065 525 1078 q 628 1035 604 1051 l 763 1068 z "}," ":{"ha":325,"x_min":0,"x_max":0,"o":"z "},"#":{"ha":889,"x_min":83,"x_max":808,"o":"m 808 590 l 650 590 l 625 413 l 772 413 l 772 289 l 608 289 l 569 0 l 446 0 l 485 289 l 354 289 l 315 0 l 192 0 l 231 289 l 83 289 l 83 413 l 247 413 l 272 590 l 119 590 l 119 714 l 289 714 l 329 1017 l 453 1017 l 413 714 l 543 714 l 583 1017 l 707 1017 l 667 714 l 808 714 l 808 590 m 526 590 l 396 590 l 371 413 l 501 413 l 526 590 z "},"!":{"ha":342,"x_min":29,"x_max":367,"o":"m 367 944 q 365 926 367 932 l 235 290 l 113 308 l 163 956 q 175 992 165 981 q 208 1003 185 1003 q 319 989 229 1003 q 367 944 367 981 m 136 -21 q 61 11 93 -21 q 29 86 29 43 q 60 163 29 131 q 136 194 92 194 q 213 163 181 194 q 244 86 244 131 q 213 10 244 42 q 136 -21 181 -21 z "},"\"":{"ha":417,"x_min":72,"x_max":440,"o":"m 440 1017 l 407 776 q 335 624 347 657 l 304 624 q 297 666 304 628 q 283 740 289 704 q 276 776 276 775 l 310 1017 l 440 1017 m 236 1017 l 203 776 q 131 624 143 657 l 101 624 q 94 666 101 628 q 79 740 86 704 l 72 776 l 106 1017 l 236 1017 z "}}}
